<svg width="683" height="679" viewBox="0 0 683 679" fill="none" xmlns="http://www.w3.org/2000/svg">
<path fill-rule="evenodd" clip-rule="evenodd" d="M329.121 28.0981C370.103 25.0211 410.665 -11.4478 448.891 3.64377C487.207 18.7712 487.732 77.808 519.974 103.448C555.012 131.31 611.915 123.797 641.846 157.085C670.795 189.281 690.514 238.622 679.061 280.377C666.283 326.964 592.184 337.431 579.589 384.067C566.748 431.612 624.05 478.93 612.507 526.806C602.033 570.247 558.831 598.974 521.757 623.921C484.259 649.153 441.064 665.902 396.319 672.279C352.142 678.574 299.721 687.517 264.1 660.64C223.278 629.839 226.296 566.381 198.815 523.255C182.523 497.686 157.676 479.72 135.585 458.956C110.041 434.946 78.5324 418.001 57.2225 390.165C32.3115 357.626 3.38252 323.21 0.373608 282.34C-2.5908 242.076 12.1911 197.641 40.9631 169.318C71.0717 139.678 126.745 153.477 158.999 126.188C189.694 100.219 181.292 41.204 216.123 21.1208C249.097 2.10876 291.166 30.9479 329.121 28.0981Z" fill="#C4C4C4"/>
</svg>
