<svg width="629" height="674" viewBox="0 0 629 674" fill="none" xmlns="http://www.w3.org/2000/svg">
<path fill-rule="evenodd" clip-rule="evenodd" d="M293.18 98.0094C321.061 110.199 353.243 94.9362 383.661 95.7373C422.538 96.7612 473.092 74.502 499.082 103.432C526.618 134.083 497.351 184.91 500.669 225.979C502.944 254.144 500.406 284.896 515.662 308.68C544.967 354.366 621.722 370.67 628.056 424.577C633.027 466.885 571.624 487.15 539.985 515.674C511.943 540.956 487.247 573.603 451.007 584.196C414.727 594.802 374.132 560.473 339.003 574.426C292.997 592.699 277.197 683.861 229.051 672.357C179.24 660.455 211.477 558.451 166.868 533.297C119.51 506.592 34.1365 592.732 5.68442 546.403C-24.6696 496.977 76.3001 448.172 79.0084 390.233C80.6792 354.489 16.0343 339.476 17.0289 303.707C17.9927 269.047 68.1179 255.962 83.6047 224.94C99.0728 193.956 94.5812 157.025 106.489 124.506C122.382 81.1067 120.038 6.97923 165.798 0.484665C219.198 -7.09437 243.761 76.403 293.18 98.0094Z" fill="#C4C4C4"/>
</svg>
