<?xml version="1.0" encoding="UTF-8" standalone="no"?>
<svg
   xmlns:dc="http://purl.org/dc/elements/1.1/"
   xmlns:cc="http://creativecommons.org/ns#"
   xmlns:rdf="http://www.w3.org/1999/02/22-rdf-syntax-ns#"
   xmlns:svg="http://www.w3.org/2000/svg"
   xmlns="http://www.w3.org/2000/svg"
   xmlns:sodipodi="http://sodipodi.sourceforge.net/DTD/sodipodi-0.dtd"
   xmlns:inkscape="http://www.inkscape.org/namespaces/inkscape"
   inkscape:version="1.0 (4035a4fb49, 2020-05-01)"
   sodipodi:docname="ok.svg"
   id="svg2109"
   version="1.1"
   height="36"
   width="36"
   viewBox="0 0 36 36">
  <metadata
     id="metadata2115">
    <rdf:RDF>
      <cc:Work
         rdf:about="">
        <dc:format>image/svg+xml</dc:format>
        <dc:type
           rdf:resource="http://purl.org/dc/dcmitype/StillImage" />
      </cc:Work>
    </rdf:RDF>
  </metadata>
  <defs
     id="defs2113" />
  <sodipodi:namedview
     inkscape:current-layer="svg2109"
     inkscape:window-maximized="1"
     inkscape:window-y="-8"
     inkscape:window-x="-8"
     inkscape:cy="18"
     inkscape:cx="18"
     inkscape:zoom="13.958333"
     showgrid="false"
     id="namedview2111"
     inkscape:window-height="838"
     inkscape:window-width="1600"
     inkscape:pageshadow="2"
     inkscape:pageopacity="0"
     guidetolerance="10"
     gridtolerance="10"
     objecttolerance="10"
     borderopacity="1"
     bordercolor="#666666"
     pagecolor="#ffffff" />
  <path
     id="path2105"
     d="m 36,31 c 0,2.8 -2.2,5 -5,5 H 5 C 2.2,36 0,33.8 0,31 V 5 C 0,2.2 2.2,0 5,0 h 26 c 2.8,0 5,2.2 5,5 z"
     fill="#ff9800" />
  <path
     id="path2107"
     d="m 20.9,24.4 c 1.5,-0.3 2.9,-0.9 4.1,-1.7 1,-0.6 1.3,-1.9 0.7,-2.9 -0.6,-1 -1.9,-1.3 -2.9,-0.7 -2.9,1.8 -6.7,1.8 -9.6,0 -1,-0.6 -2.3,-0.3 -2.9,0.7 -0.6,1 -0.3,2.3 0.7,2.9 1.3,0.8 2.7,1.4 4.1,1.7 l -4,4 c -0.8,0.8 -0.8,2.1 0,3 0.4,0.4 0.9,0.6 1.5,0.6 0.5,0 1.1,-0.2 1.5,-0.6 l 3.9,-3.9 3.9,3.9 c 0.8,0.8 2.1,0.8 3,0 0.8,-0.8 0.8,-2.1 0,-3 0,0 -4,-4 -4,-4 z M 18,4 c -3.9,0 -7,3.1 -7,7 0,3.9 3.1,7 7,7 3.9,0 7,-3.1 7,-7 0,-3.9 -3.1,-7 -7,-7 z m 0,10 c -1.7,0 -3,-1.3 -3,-3 0,-1.7 1.3,-3 3,-3 1.7,0 3,1.3 3,3 0,1.7 -1.3,3 -3,3 z"
     fill="#ffffff" />
</svg>
