<?xml version="1.0" encoding="UTF-8" standalone="no"?>
<svg
   xmlns:dc="http://purl.org/dc/elements/1.1/"
   xmlns:cc="http://creativecommons.org/ns#"
   xmlns:rdf="http://www.w3.org/1999/02/22-rdf-syntax-ns#"
   xmlns:svg="http://www.w3.org/2000/svg"
   xmlns="http://www.w3.org/2000/svg"
   xmlns:sodipodi="http://sodipodi.sourceforge.net/DTD/sodipodi-0.dtd"
   xmlns:inkscape="http://www.inkscape.org/namespaces/inkscape"
   inkscape:version="1.0 (4035a4fb49, 2020-05-01)"
   height="50.099998"
   width="54.100002"
   sodipodi:docname="rm.svg"
   version="1.1"
   xml:space="preserve"
   viewBox="0 0 54.100005 50.1"
   y="0px"
   x="0px"
   id="Layer_1"><metadata
   id="metadata871"><rdf:RDF><cc:Work
       rdf:about=""><dc:format>image/svg+xml</dc:format><dc:type
         rdf:resource="http://purl.org/dc/dcmitype/StillImage" /><dc:title></dc:title></cc:Work></rdf:RDF></metadata><defs
   id="defs869">       </defs><sodipodi:namedview
   inkscape:current-layer="Layer_1"
   inkscape:window-maximized="1"
   inkscape:window-y="-8"
   inkscape:window-x="-8"
   inkscape:cy="66.512865"
   inkscape:cx="26.458295"
   inkscape:zoom="2.3641496"
   fit-margin-bottom="0"
   fit-margin-right="0"
   fit-margin-left="0"
   fit-margin-top="0"
   showgrid="false"
   id="namedview867"
   inkscape:window-height="838"
   inkscape:window-width="1600"
   inkscape:pageshadow="2"
   inkscape:pageopacity="0"
   guidetolerance="10"
   gridtolerance="10"
   objecttolerance="10"
   borderopacity="1"
   bordercolor="#666666"
   pagecolor="#ffffff" /> <style
   id="style853"
   type="text/css"> .st0{fill:#FFFFFF;} .st1{fill:#FAA41C;} </style> <g
   transform="translate(-45.49194,-40.126418)"
   id="g884"><rect
     id="основание_7_"
     x="45.49194"
     y="74.326416"
     class="st1"
     width="54"
     height="15.9" /><path
     class="st1"
     d="m 45.69194,68.126418 v -28 h 12.2 c 3,0 5.4,0.8 7.1,2.4 1.8,1.6 2.6,3.6 2.6,6.1 0,2.5 -0.9,4.6 -2.6,6.1 -1.7,1.6 -4.1,2.4 -7.1,2.4 h -6.5 v 11.1 h -5.7 z m 5.7,-16 h 6.1 c 2.8,0 4.4,-1.2 4.4,-3.5 0,-2.2 -1.6,-3.5 -4.4,-3.5 h -6.1 z"
     id="path858" /><path
     class="st1"
     d="m 71.99194,68.126418 v -28 h 5.7 l 8.1,11.6 8.1,-11.6 h 5.7 v 28 h -5.7 v -19.1 l -6.4,9 h -3.2 l -6.6,-9 v 19.1 z"
     id="path860" /></g> </svg>
