<?xml version="1.0" encoding="UTF-8" standalone="no"?>
<svg
   xmlns:dc="http://purl.org/dc/elements/1.1/"
   xmlns:cc="http://creativecommons.org/ns#"
   xmlns:rdf="http://www.w3.org/1999/02/22-rdf-syntax-ns#"
   xmlns:svg="http://www.w3.org/2000/svg"
   xmlns="http://www.w3.org/2000/svg"
   xmlns:sodipodi="http://sodipodi.sourceforge.net/DTD/sodipodi-0.dtd"
   xmlns:inkscape="http://www.inkscape.org/namespaces/inkscape"
   inkscape:version="1.0 (4035a4fb49, 2020-05-01)"
   height="45.700001"
   width="122"
   sodipodi:docname="rsv.svg"
   version="1.1"
   xml:space="preserve"
   viewBox="0 0 122 45.700002"
   y="0px"
   x="0px"
   id="Layer_1"><metadata
   id="metadata1114"><rdf:RDF><cc:Work
       rdf:about=""><dc:format>image/svg+xml</dc:format><dc:type
         rdf:resource="http://purl.org/dc/dcmitype/StillImage" /><dc:title></dc:title></cc:Work></rdf:RDF></metadata><defs
   id="defs1112">   </defs><sodipodi:namedview
   inkscape:current-layer="Layer_1"
   inkscape:window-maximized="1"
   inkscape:window-y="-8"
   inkscape:window-x="-8"
   inkscape:cy="21.649998"
   inkscape:cx="60.949998"
   inkscape:zoom="4.7282993"
   fit-margin-bottom="0"
   fit-margin-right="0"
   fit-margin-left="0"
   fit-margin-top="0"
   showgrid="false"
   id="namedview1110"
   inkscape:window-height="838"
   inkscape:window-width="1600"
   inkscape:pageshadow="2"
   inkscape:pageopacity="0"
   guidetolerance="10"
   gridtolerance="10"
   objecttolerance="10"
   borderopacity="1"
   bordercolor="#666666"
   pagecolor="#ffffff" /> <style
   id="style1001"
   type="text/css"> .st0{fill:#FFFFFF;} .st1{fill:#D2D3D4;} .st2{fill:#131718;} .st3{fill:#006AA7;} .st4{fill:#B8335C;} </style> <g
   transform="translate(-9.9,-49.2)"
   id="g1105"> <g
   id="g1023"> <polygon
   class="st1"
   points="109,49.2 37.5,49.2 34.4,63.5 106.1,63.5 "
   id="polygon1005" /> <path
   class="st2"
   d="m 40.5,60.5 c -0.1,0.4 -0.3,0.6 -0.7,0.6 -0.4,0 -0.5,-0.2 -0.5,-0.6 l 1.6,-7.6 c 0,-0.2 0.1,-0.4 0.3,-0.5 0.1,-0.1 0.3,-0.2 0.5,-0.2 h 2.7 c 1.2,0 2,0.2 2.5,0.5 0.5,0.3 0.6,0.9 0.5,1.6 -0.2,0.8 -0.5,1.3 -1.1,1.7 -0.6,0.4 -1.3,0.6 -2.2,0.6 h -2.8 z m 3.1,-4.9 c 0.9,0 1.6,-0.1 1.9,-0.2 0.3,-0.1 0.5,-0.4 0.6,-0.9 0.1,-0.3 0.1,-0.5 0,-0.7 C 46,53.6 45.8,53.5 45.5,53.5 45.2,53.4 44.7,53.4 44.1,53.4 H 42 l -0.5,2.2 z"
   id="path1007" /> <path
   class="st2"
   d="m 55.1,57.9 c -0.1,0.7 -0.4,1.2 -0.8,1.7 -0.4,0.5 -0.9,0.9 -1.5,1.1 -0.6,0.3 -1.3,0.4 -2,0.4 C 50.1,61.1 49.5,61 49,60.7 48.5,60.4 48.2,60 48,59.5 47.8,59 47.8,58.4 47.9,57.8 l 0.5,-2.4 c 0.1,-0.7 0.4,-1.2 0.8,-1.7 0.4,-0.5 0.9,-0.9 1.5,-1.1 0.6,-0.3 1.3,-0.4 2,-0.4 0.7,0 1.3,0.1 1.8,0.4 0.5,0.3 0.8,0.7 1,1.2 0.2,0.5 0.2,1.1 0.1,1.7 z m -2.7,-4.5 c -0.8,0 -1.4,0.2 -1.9,0.6 -0.5,0.4 -0.8,0.9 -1,1.6 L 49,57.9 c -0.2,0.7 -0.1,1.3 0.3,1.6 0.3,0.4 0.9,0.6 1.7,0.6 0.8,0 1.4,-0.2 1.9,-0.6 0.5,-0.4 0.8,-0.9 1,-1.6 l 0.5,-2.3 c 0.1,-0.7 0.1,-1.2 -0.3,-1.6 -0.3,-0.5 -0.9,-0.6 -1.7,-0.6"
   id="path1009" /> <path
   class="st2"
   d="m 59.8,61.1 c -0.9,0 -1.6,-0.1 -2.1,-0.3 -0.5,-0.2 -0.8,-0.4 -1,-0.8 -0.2,-0.4 -0.2,-0.9 0,-1.5 l 0.8,-3.6 c 0.1,-0.6 0.4,-1.1 0.7,-1.5 0.3,-0.4 0.7,-0.6 1.2,-0.8 0.5,-0.2 1.2,-0.2 2.1,-0.2 h 2.2 c 0.6,0 0.9,0.1 1.1,0.4 0.2,0.3 0.3,0.7 0.1,1.3 -0.1,0.5 -0.4,0.8 -0.8,0.8 -0.2,0 -0.3,-0.1 -0.4,-0.2 -0.1,-0.1 -0.1,-0.3 0,-0.5 0,-0.2 0,-0.4 0,-0.5 -0.1,-0.1 -0.2,-0.1 -0.4,-0.1 h -2.1 c -0.6,0 -1.1,0 -1.4,0.1 -0.3,0.1 -0.6,0.2 -0.7,0.4 -0.2,0.2 -0.3,0.5 -0.4,0.9 l -0.8,3.6 c -0.1,0.4 -0.1,0.7 0,0.9 0.1,0.2 0.3,0.3 0.6,0.4 0.3,0.1 0.9,0.1 1.6,0.1 H 62 c 0.2,0 0.4,0 0.5,-0.1 0.1,-0.1 0.2,-0.2 0.2,-0.5 0,-0.2 0.1,-0.4 0.3,-0.5 0.1,-0.1 0.3,-0.2 0.5,-0.2 0.4,0 0.5,0.3 0.4,0.8 -0.1,0.6 -0.3,1 -0.7,1.2 -0.3,0.3 -0.8,0.4 -1.3,0.4 z"
   id="path1011" /> <path
   class="st2"
   d="m 68.7,61.1 c -0.9,0 -1.6,-0.1 -2.1,-0.3 -0.5,-0.2 -0.8,-0.4 -1,-0.8 -0.2,-0.4 -0.2,-0.9 0,-1.5 l 0.8,-3.6 c 0.1,-0.6 0.4,-1.1 0.7,-1.5 0.3,-0.4 0.7,-0.6 1.2,-0.8 0.5,-0.2 1.2,-0.2 2.1,-0.2 h 2.2 c 0.6,0 0.9,0.1 1.1,0.4 0.2,0.3 0.3,0.7 0.1,1.3 -0.1,0.5 -0.4,0.8 -0.8,0.8 -0.2,0 -0.3,-0.1 -0.4,-0.2 -0.1,-0.1 -0.1,-0.3 0,-0.5 0,-0.2 0,-0.4 0,-0.5 -0.1,-0.1 -0.2,-0.1 -0.4,-0.1 h -2.1 c -0.6,0 -1.1,0 -1.4,0.1 -0.3,0.1 -0.6,0.2 -0.7,0.4 -0.2,0.2 -0.3,0.5 -0.4,0.9 l -0.8,3.6 c -0.1,0.4 -0.1,0.7 0,0.9 0.1,0.2 0.3,0.3 0.6,0.4 0.3,0.1 0.9,0.1 1.6,0.1 h 1.9 c 0.2,0 0.4,0 0.5,-0.1 0.1,-0.1 0.2,-0.2 0.2,-0.5 0,-0.2 0.1,-0.4 0.3,-0.5 0.1,-0.1 0.3,-0.2 0.5,-0.2 0.4,0 0.5,0.3 0.4,0.8 -0.1,0.6 -0.3,1 -0.7,1.2 -0.3,0.3 -0.8,0.4 -1.3,0.4 z"
   id="path1013" /> <path
   class="st2"
   d="M 74.2,60.6 75.8,53 c 0.1,-0.4 0.3,-0.7 0.7,-0.7 0.4,0 0.5,0.2 0.4,0.7 l -1.3,6.2 6.3,-6.6 c 0.2,-0.2 0.5,-0.3 0.7,-0.3 0.4,0 0.5,0.2 0.4,0.7 l -1.6,7.6 c -0.1,0.4 -0.3,0.6 -0.7,0.6 -0.4,0 -0.5,-0.2 -0.5,-0.6 l 1.4,-6.3 -6.3,6.5 c -0.1,0.2 -0.3,0.3 -0.4,0.3 -0.1,0 -0.2,0.1 -0.4,0.1 -0.2,0.1 -0.4,-0.2 -0.3,-0.6"
   id="path1015" /> <path
   class="st2"
   d="M 74.2,60.6 75.8,53 c 0.1,-0.4 0.3,-0.7 0.7,-0.7 0.4,0 0.5,0.2 0.4,0.7 l -1.3,6.2 6.3,-6.6 c 0.2,-0.2 0.5,-0.3 0.7,-0.3 0.4,0 0.5,0.2 0.4,0.7 l -1.6,7.6 c -0.1,0.4 -0.3,0.6 -0.7,0.6 -0.4,0 -0.5,-0.2 -0.5,-0.6 l 1.4,-6.3 -6.3,6.5 c -0.1,0.2 -0.3,0.3 -0.4,0.3 -0.1,0 -0.2,0.1 -0.4,0.1 -0.2,0.1 -0.4,-0.2 -0.3,-0.6 z"
   id="path1017" /> <path
   class="st2"
   d="m 89.2,60.7 0.7,-3.3 h -2 c -0.4,0 -0.8,0.1 -1,0.2 -0.2,0.1 -0.4,0.4 -0.6,0.7 l -0.6,1.3 c -0.3,0.5 -0.6,1 -1.1,1.3 -0.4,0.3 -0.9,0.5 -1.3,0.5 -0.5,0 -0.7,-0.2 -0.6,-0.6 0.1,-0.4 0.4,-0.6 0.9,-0.6 0.2,0 0.3,-0.1 0.5,-0.2 0.2,-0.2 0.3,-0.3 0.4,-0.5 l 0.7,-1.4 c 0.2,-0.4 0.5,-0.8 0.9,-1 -0.9,-0.4 -1.2,-1.1 -1,-2.1 0.2,-0.8 0.6,-1.4 1.3,-1.8 0.7,-0.4 1.6,-0.6 2.7,-0.6 h 2.6 c 0.4,0 0.5,0.2 0.4,0.7 l -1.6,7.5 c -0.1,0.4 -0.3,0.6 -0.7,0.6 -0.6,-0.1 -0.7,-0.3 -0.6,-0.7 z m 1.5,-7.1 h -2 c -0.8,0 -1.4,0.1 -1.8,0.3 -0.4,0.2 -0.7,0.6 -0.8,1 -0.2,0.9 0.5,1.3 1.9,1.3 h 2 z"
   id="path1019" /> <path
   class="st2"
   d="m 97.8,57.8 c -0.1,-0.1 -0.1,-0.2 -0.1,-0.3 0,-0.2 0.1,-0.3 0.2,-0.4 C 98,57 98.1,57 98.3,57 h 5.2 c 0.2,0 0.3,0 0.3,0.1 0.1,0.1 0.1,0.2 0.1,0.4 0,0.2 -0.1,0.3 -0.2,0.4 -0.1,0.1 -0.2,0.1 -0.4,0.1 H 98.1 C 98,58 97.9,57.9 97.8,57.8 Z"
   id="path1021" /> </g> <g
   id="g1051"> <polygon
   class="st3"
   points="47,64.9 43.9,79.3 102.7,79.3 105.8,64.9 "
   id="polygon1025" /> <path
   class="st0"
   d="m 52.1,76.9 c -0.9,0 -1.6,-0.1 -2.1,-0.3 -0.5,-0.2 -0.8,-0.4 -1,-0.8 -0.2,-0.4 -0.2,-0.9 0,-1.5 l 0.8,-3.6 c 0.1,-0.6 0.4,-1.1 0.7,-1.5 0.3,-0.4 0.7,-0.6 1.2,-0.8 0.5,-0.2 1.2,-0.2 2.1,-0.2 H 56 c 0.6,0 0.9,0.1 1.1,0.4 0.2,0.3 0.3,0.7 0.1,1.3 -0.1,0.5 -0.4,0.8 -0.8,0.8 -0.2,0 -0.3,-0.1 -0.4,-0.2 -0.1,-0.1 -0.1,-0.3 0,-0.5 0,-0.2 0,-0.4 0,-0.5 -0.1,-0.1 -0.2,-0.1 -0.4,-0.1 h -2.1 c -0.6,0 -1.1,0 -1.4,0.1 -0.3,0.1 -0.6,0.2 -0.7,0.4 -0.2,0.2 -0.3,0.5 -0.4,0.9 l -0.8,3.6 c -0.1,0.4 -0.1,0.7 0,0.9 0.1,0.2 0.3,0.3 0.6,0.4 0.3,0.1 0.9,0.1 1.6,0.1 h 1.9 c 0.2,0 0.4,0 0.5,-0.1 0.1,-0.1 0.2,-0.2 0.2,-0.5 0,-0.2 0.1,-0.4 0.3,-0.5 0.1,-0.1 0.3,-0.2 0.5,-0.2 0.4,0 0.5,0.3 0.4,0.8 -0.1,0.6 -0.3,1 -0.7,1.2 -0.3,0.3 -0.8,0.4 -1.3,0.4 z"
   id="path1027" /> <path
   class="st0"
   d="m 54.1,77 c 0,0 0,0 0,0 h -2 c -0.9,0 -1.6,-0.1 -2.1,-0.3 -0.5,-0.2 -0.9,-0.5 -1,-0.9 -0.2,-0.4 -0.2,-0.9 0,-1.6 l 0.8,-3.6 c 0.1,-0.7 0.4,-1.2 0.7,-1.6 0.3,-0.4 0.7,-0.7 1.3,-0.8 C 52.3,68 53,68 53.9,68 h 2.2 c 0.6,0 1,0.2 1.2,0.5 0.2,0.3 0.3,0.7 0.2,1.3 -0.1,0.7 -0.5,0.8 -0.9,0.8 0,0 0,0 0,0 -0.2,0 -0.4,-0.1 -0.5,-0.2 C 56,70.3 56,70 56,69.8 c 0.1,-0.3 0,-0.3 0,-0.4 0,0 -0.1,-0.1 -0.3,-0.1 h -2.1 c -0.6,0 -1.1,0 -1.4,0.1 -0.3,0.1 -0.5,0.2 -0.6,0.4 -0.1,0.2 -0.3,0.5 -0.4,0.9 l -0.8,3.6 c -0.1,0.4 -0.1,0.7 0,0.9 0.1,0.2 0.2,0.3 0.5,0.3 0.3,0.1 0.8,0.1 1.6,0.1 h 1.9 c 0.2,0 0.3,0 0.4,-0.1 0.1,0 0.1,-0.1 0.2,-0.4 0.1,-0.2 0.2,-0.4 0.3,-0.6 0.1,-0.1 0.3,-0.2 0.5,-0.2 0,0 0,0 0,0 0.2,0 0.4,0.1 0.5,0.2 0.1,0.2 0.1,0.4 0.1,0.7 -0.1,0.6 -0.4,1 -0.7,1.3 -0.6,0.4 -1,0.5 -1.6,0.5 z m -0.5,-8.7 c -0.8,0 -1.4,0.1 -1.9,0.2 -0.5,0.2 -0.9,0.4 -1.2,0.8 -0.3,0.4 -0.5,0.8 -0.6,1.5 l -0.8,3.6 c -0.1,0.6 -0.1,1.1 0,1.5 0.1,0.3 0.4,0.6 0.9,0.7 0.5,0.2 1.2,0.2 2.1,0.2 h 2 c 0.5,0 0.9,-0.1 1.3,-0.4 0.3,-0.3 0.5,-0.6 0.6,-1.2 0.1,-0.3 0,-0.4 0,-0.5 -0.1,-0.1 -0.2,-0.1 -0.3,-0.1 -0.2,0 -0.3,0.1 -0.4,0.2 -0.2,0.1 -0.3,0.2 -0.3,0.5 -0.1,0.3 -0.1,0.4 -0.2,0.5 -0.1,0.1 -0.3,0.1 -0.5,0.1 h -1.9 c -0.7,0 -1.3,0 -1.6,-0.1 -0.4,-0.1 -0.6,-0.2 -0.7,-0.5 -0.1,-0.2 -0.1,-0.5 0,-1 l 0.8,-3.6 c 0.1,-0.4 0.2,-0.8 0.4,-1 0.2,-0.2 0.4,-0.4 0.8,-0.4 0.3,-0.1 0.8,-0.1 1.5,-0.1 h 2.1 c 0.3,0 0.4,0.1 0.5,0.2 0.1,0.1 0.1,0.3 0,0.5 0,0.2 0,0.3 0,0.4 0.1,0.1 0.2,0.1 0.3,0.1 0,0 0,0 0,0 0.3,0 0.5,-0.2 0.6,-0.7 0.1,-0.5 0.1,-0.9 -0.1,-1.2 -0.2,-0.2 -0.5,-0.4 -1.1,-0.4 h -2.2 c 0,0.2 -0.1,0.2 -0.1,0.2 z"
   id="path1029" /> <path
   class="st0"
   d="m 64.6,68.2 c 0.5,0 0.7,0.2 0.6,0.6 -0.1,0.4 -0.4,0.6 -0.8,0.6 h -2 l -1.5,7.1 c 0,0.2 -0.1,0.3 -0.3,0.4 C 60.4,77 60.3,77 60,77 59.8,77 59.6,76.9 59.6,76.8 59.5,76.7 59.5,76.5 59.5,76.3 L 61,69.2 h -2 c -0.2,0 -0.4,-0.1 -0.5,-0.2 -0.1,-0.1 -0.1,-0.2 -0.1,-0.4 0,-0.2 0.1,-0.3 0.3,-0.4 C 58.8,68.1 59,68 59.2,68 Z"
   id="path1031" /> <path
   class="st0"
   d="m 60.1,77.1 c 0,0 -0.1,0 0,0 -0.3,0 -0.4,-0.1 -0.5,-0.2 -0.1,-0.1 -0.1,-0.3 -0.1,-0.5 l 1.5,-7 h -1.9 c -0.2,0 -0.4,-0.1 -0.6,-0.2 -0.1,-0.1 -0.2,-0.3 -0.1,-0.5 0,-0.2 0.1,-0.4 0.3,-0.5 0.2,-0.1 0.4,-0.2 0.6,-0.2 h 5.4 c 0.3,0 0.5,0.1 0.6,0.2 0.1,0.1 0.1,0.3 0.1,0.5 -0.1,0.3 -0.3,0.6 -0.9,0.6 0,0 0,0 0,0 h -1.9 l -1.5,7 c 0,0.2 -0.2,0.4 -0.3,0.5 -0.3,0.3 -0.5,0.3 -0.7,0.3 z m -0.8,-8.8 c -0.2,0 -0.3,0 -0.5,0.1 -0.1,0.1 -0.2,0.2 -0.2,0.3 0,0.1 0,0.2 0.1,0.3 0.1,0.1 0.2,0.1 0.4,0.1 h 2.2 l -1.6,7.2 c 0,0.2 0,0.3 0,0.4 0.1,0.1 0.2,0.1 0.4,0.1 0.2,0 0.3,0 0.5,-0.2 0.1,-0.1 0.2,-0.2 0.2,-0.4 L 62.3,69 h 2.1 c 0.4,0 0.6,-0.2 0.7,-0.5 0,-0.1 0,-0.2 0,-0.3 -0.1,-0.1 -0.2,-0.1 -0.4,-0.1 l -5.4,0.2 c 0,0 0,0 0,0 z"
   id="path1033" /> <path
   class="st0"
   d="M 66.1,76.4 C 66,76.8 65.8,77 65.4,77 65,77 64.9,76.8 64.9,76.4 l 1.6,-7.6 c 0,-0.2 0.1,-0.4 0.3,-0.5 0.1,-0.1 0.3,-0.2 0.5,-0.2 H 70 c 1.2,0 2,0.2 2.5,0.5 0.5,0.3 0.6,0.9 0.5,1.6 -0.2,0.8 -0.5,1.3 -1.1,1.7 -0.6,0.4 -1.3,0.6 -2.2,0.6 h -2.8 z m 3.2,-4.9 c 1,0 1.6,-0.1 1.9,-0.2 0.3,-0.1 0.5,-0.4 0.6,-0.9 0.1,-0.3 0.1,-0.5 0,-0.7 -0.1,-0.2 -0.3,-0.3 -0.6,-0.3 -0.3,-0.1 -0.8,-0.1 -1.4,-0.1 h -2.1 l -0.5,2.2 z"
   id="path1035" /> <path
   class="st0"
   d="m 65.4,77.2 c 0,0 0,0 0,0 -0.2,0 -0.4,-0.1 -0.5,-0.2 -0.1,-0.1 -0.1,-0.3 -0.1,-0.6 l 1.6,-7.6 c 0.1,-0.2 0.1,-0.4 0.3,-0.6 C 66.8,68.1 67,68 67.2,68 h 2.7 c 1.2,0 2.1,0.2 2.6,0.5 0.5,0.4 0.7,0.9 0.5,1.7 -0.2,0.8 -0.5,1.4 -1.1,1.8 -0.6,0.4 -1.3,0.6 -2.2,0.6 H 67 l -0.8,3.7 c -0.1,0.6 -0.3,0.9 -0.8,0.9 z m 1.9,-8.9 c -0.1,0 -0.3,0 -0.4,0.1 -0.1,0.1 -0.2,0.3 -0.2,0.4 l -1.6,7.6 c 0,0.2 0,0.3 0,0.4 0.1,0.1 0.2,0.1 0.3,0.1 0,0 0,0 0,0 0.3,0 0.5,-0.2 0.6,-0.5 l 0.8,-3.9 h 2.8 c 0.9,0 1.6,-0.2 2.1,-0.6 0.5,-0.4 0.9,-0.9 1,-1.7 0.2,-0.7 0,-1.2 -0.4,-1.5 -0.4,-0.3 -1.3,-0.5 -2.4,-0.5 l -2.6,0.1 c 0,0 0,0 0,0 z m 2.1,3.3 c 0,0 -0.1,0 -0.1,0 h -2.2 l 0.5,-2.4 h 2.2 c 0.6,0 1.1,0 1.4,0.1 0.3,0.1 0.5,0.2 0.7,0.4 0.1,0.2 0.1,0.4 0,0.8 -0.1,0.5 -0.3,0.8 -0.7,1 -0.3,0 -0.9,0.1 -1.8,0.1 z m -0.1,-0.2 c 0.9,0 1.5,-0.1 1.8,-0.2 0.3,-0.1 0.5,-0.4 0.5,-0.8 0.1,-0.3 0.1,-0.5 0,-0.6 -0.1,-0.1 -0.2,-0.2 -0.5,-0.3 -0.3,-0.1 -0.8,-0.1 -1.4,-0.1 h -2 l -0.4,2 z"
   id="path1037" /> <path
   class="st0"
   d="m 78.8,68.3 1.6,8.1 c 0,0.1 0,0.2 0,0.3 0,0.1 -0.1,0.2 -0.2,0.3 -0.1,0.1 -0.3,0.1 -0.4,0.1 -0.3,0 -0.5,-0.1 -0.5,-0.4 l -0.4,-2.3 h -3.8 l -1.4,2.3 c -0.2,0.3 -0.4,0.4 -0.7,0.4 -0.2,0 -0.3,-0.1 -0.4,-0.1 -0.1,-0.1 -0.1,-0.2 -0.1,-0.3 0,-0.1 0.1,-0.2 0.1,-0.3 l 5.1,-8.1 z m -1.1,1.7 -2.1,3.4 h 2.9 z"
   id="path1039" /> <path
   class="st0"
   d="m 79.7,77.3 c -0.1,0 -0.1,0 0,0 -0.4,0 -0.6,-0.2 -0.6,-0.5 L 78.7,74.5 H 75 l -1.4,2.3 c -0.2,0.3 -0.5,0.5 -0.8,0.5 0,0 0,0 0,0 -0.2,0 -0.3,-0.1 -0.5,-0.2 -0.1,-0.1 -0.2,-0.3 -0.1,-0.4 0,-0.1 0.1,-0.3 0.1,-0.4 l 5.2,-8.2 h 1.4 v 0.1 l 1.6,8.1 c 0,0.1 0,0.2 0,0.4 0,0.2 -0.1,0.3 -0.3,0.4 -0.2,0.2 -0.4,0.2 -0.5,0.2 z m -4.9,-3 h 4 l 0.5,2.4 c 0,0.2 0.2,0.3 0.4,0.3 0,0 0,0 0,0 0.1,0 0.3,0 0.4,-0.1 0.1,-0.1 0.2,-0.2 0.2,-0.3 0,-0.1 0,-0.2 0,-0.3 l -1.6,-8.1 h -1.1 l -5.1,8.1 c 0,0.1 -0.1,0.2 -0.1,0.3 0,0.1 0,0.2 0.1,0.2 0.1,0.1 0.2,0.1 0.3,0.1 0,0 0,0 0,0 0.2,0 0.4,-0.1 0.6,-0.4 z m 3.8,-0.9 h -3.2 l 2.4,-3.7 z m -2.8,-0.2 h 2.5 l -0.6,-3 z"
   id="path1041" /> <path
   class="st0"
   d="m 82.9,76.5 c -0.1,0.4 -0.3,0.6 -0.7,0.6 -0.4,0 -0.5,-0.2 -0.5,-0.6 l 1.6,-7.6 c 0.1,-0.4 0.3,-0.7 0.7,-0.7 0.4,0 0.6,0.2 0.5,0.7 L 84,71.7 h 4.9 l 0.6,-2.9 c 0.1,-0.4 0.3,-0.7 0.7,-0.7 0.4,0 0.5,0.2 0.4,0.7 L 89,76.5 c -0.1,0.4 -0.3,0.6 -0.7,0.6 -0.4,0 -0.5,-0.2 -0.5,-0.6 l 0.8,-3.6 h -4.9 z"
   id="path1043" /> <path
   class="st0"
   d="m 88.3,77.2 c 0,0 0,0 0,0 -0.2,0 -0.4,-0.1 -0.5,-0.2 -0.1,-0.1 -0.1,-0.3 -0.1,-0.6 l 0.7,-3.5 H 83.7 L 83,76.5 c -0.1,0.5 -0.4,0.7 -0.8,0.7 0,0 0,0 0,0 -0.2,0 -0.4,-0.1 -0.5,-0.2 -0.1,-0.1 -0.1,-0.3 -0.1,-0.6 l 1.6,-7.6 c 0.1,-0.6 0.5,-0.7 0.8,-0.7 0,0 0,0 0,0 0.2,0 0.4,0.1 0.5,0.2 0.1,0.1 0.1,0.3 0.1,0.6 L 84,71.7 h 4.7 l 0.6,-2.8 c 0.1,-0.6 0.5,-0.7 0.8,-0.7 0,0 0,0 0,0 0.2,0 0.4,0.1 0.5,0.2 0.1,0.1 0.1,0.3 0.1,0.6 l -1.6,7.6 C 89,77 88.7,77.2 88.3,77.2 Z m -4.7,-4.4 h 5.1 L 88,76.5 c 0,0.2 0,0.3 0,0.4 0,0.1 0.2,0.1 0.3,0.1 0,0 0,0 0,0 0.3,0 0.5,-0.2 0.6,-0.6 l 1.6,-7.6 c 0,-0.2 0,-0.3 0,-0.4 -0.1,-0.1 -0.2,-0.1 -0.3,-0.1 0,0 0,0 0,0 -0.3,0 -0.5,0.2 -0.6,0.6 l -0.6,3 h -5.1 l 0.7,-3 c 0,-0.2 0,-0.3 0,-0.4 -0.1,-0.1 -0.2,-0.1 -0.3,-0.1 0,0 0,0 0,0 -0.3,0 -0.5,0.2 -0.6,0.6 l -1.6,7.6 c 0,0.2 0,0.3 0,0.4 -0.1,0 0,0 0.1,0 0,0 0,0 0,0 0.3,0 0.5,-0.2 0.6,-0.6 z"
   id="path1045" /> <path
   class="st0"
   d="m 96.8,68.3 1.6,8.1 c 0,0.1 0,0.2 0,0.3 0,0.1 -0.1,0.2 -0.2,0.3 -0.1,0.1 -0.3,0.1 -0.4,0.1 -0.3,0 -0.5,-0.1 -0.5,-0.4 l -0.4,-2.3 h -3.8 l -1.4,2.3 c -0.2,0.3 -0.4,0.4 -0.7,0.4 -0.2,0 -0.3,-0.1 -0.4,-0.1 -0.1,-0.1 -0.1,-0.2 -0.1,-0.3 0,-0.1 0.1,-0.2 0.1,-0.3 l 5.1,-8.1 z m -1,1.7 -2.1,3.4 h 2.8 z"
   id="path1047" /> <path
   class="st0"
   d="m 97.7,77.4 c 0,0 0,0 0,0 -0.3,0 -0.6,-0.2 -0.6,-0.5 L 96.7,74.6 H 93 l -1.4,2.3 c -0.2,0.3 -0.5,0.5 -0.8,0.5 -0.2,0 -0.3,-0.1 -0.5,-0.2 -0.1,-0.1 -0.2,-0.3 -0.1,-0.4 0,-0.1 0.1,-0.3 0.1,-0.4 l 5.2,-8.2 h 1.4 v 0.1 l 1.6,8.1 c 0,0.1 0,0.2 0,0.4 0,0.2 -0.1,0.3 -0.3,0.4 -0.1,0.1 -0.3,0.2 -0.5,0.2 z m -4.8,-3 h 4 l 0.5,2.4 c 0,0.2 0.2,0.3 0.4,0.3 0,0 0,0 0,0 0.1,0 0.3,0 0.4,-0.1 0.1,-0.1 0.2,-0.2 0.2,-0.3 0,-0.1 0,-0.2 0,-0.3 l -1.6,-8.1 h -1.1 l -5.1,8.1 c 0,0.1 -0.1,0.2 -0.1,0.3 0,0.1 0,0.2 0.1,0.2 0.1,0.1 0.2,0.1 0.3,0.1 0,0 0,0 0,0 0.2,0 0.4,-0.1 0.6,-0.4 z m 3.8,-0.9 h -3.2 l 2.4,-3.7 z m -2.8,-0.2 h 2.5 l -0.6,-3 z"
   id="path1049" /> </g> <g
   id="g1103"> <polygon
   class="st4"
   points="12.9,80.6 9.9,94.9 128.8,94.9 131.9,80.6 "
   id="polygon1053" /> <path
   class="st0"
   d="m 16.4,84 c 0,-0.2 0.1,-0.4 0.3,-0.5 0.1,-0.1 0.3,-0.2 0.5,-0.2 h 2.7 c 0.8,0 1.5,0.1 2,0.2 0.5,0.2 0.8,0.4 1,0.7 0.2,0.3 0.2,0.8 0.1,1.3 -0.1,0.6 -0.4,1.1 -0.8,1.4 0.6,0.4 0.9,1.2 0.6,2.2 l -0.1,0.3 c -0.1,0.6 -0.4,1.2 -0.7,1.5 -0.3,0.4 -0.8,0.6 -1.3,0.8 -0.6,0.2 -1.3,0.2 -2.2,0.2 h -3.1 c -0.2,0 -0.3,-0.1 -0.4,-0.2 -0.1,-0.1 -0.1,-0.3 0,-0.5 z m 0.4,3.9 -0.7,3.1 h 2.5 c 0.7,0 1.3,0 1.6,-0.1 0.3,-0.1 0.6,-0.2 0.8,-0.4 0.2,-0.2 0.3,-0.5 0.4,-0.9 v -0.2 c 0.1,-0.4 0.1,-0.7 0,-0.9 C 21.3,88.3 21.2,88.2 20.9,88.1 20.6,88 20.2,88 19.5,88 Z M 19,86.7 c 0.6,0 1.1,0 1.4,-0.1 0.3,-0.1 0.6,-0.2 0.7,-0.3 0.2,-0.2 0.3,-0.4 0.3,-0.7 0.1,-0.3 0.1,-0.5 0,-0.7 -0.1,-0.1 -0.3,-0.3 -0.6,-0.3 -0.3,-0.1 -0.8,-0.1 -1.4,-0.1 h -2 L 17,86.7 Z"
   id="path1055" /> <path
   class="st0"
   d="m 18.4,92.2 c 0,0 -0.1,0 -0.1,0 H 15.2 C 15,92.2 14.8,92.1 14.7,92 14.6,91.9 14.6,91.7 14.6,91.4 L 16.2,84 c 0.1,-0.2 0.1,-0.4 0.3,-0.6 0.1,-0.1 0.3,-0.2 0.5,-0.2 0,0 0,0 0,0 h 2.7 c 0.8,0 1.5,0.1 2,0.2 0.5,0.2 0.8,0.4 1,0.8 0.2,0.3 0.2,0.8 0.1,1.4 -0.1,0.6 -0.4,1.1 -0.8,1.4 0.6,0.4 0.8,1.2 0.6,2.3 l -0.1,0.3 c -0.1,0.7 -0.4,1.2 -0.7,1.6 -0.3,0.4 -0.8,0.7 -1.4,0.8 -0.4,0.1 -1.1,0.2 -2,0.2 z m -1.3,-8.8 c -0.1,0 -0.3,0 -0.4,0.1 -0.1,0.1 -0.2,0.3 -0.2,0.4 l -1.6,7.4 c 0,0.2 0,0.3 0,0.4 0.1,0.1 0.1,0.1 0.3,0.1 h 3.1 c 0.9,0 1.6,-0.1 2.2,-0.2 0.5,-0.2 1,-0.4 1.3,-0.8 0.3,-0.4 0.5,-0.9 0.7,-1.5 L 22.6,89 c 0.2,-1 0,-1.7 -0.6,-2.1 l -0.2,0.1 0.1,-0.1 c 0.4,-0.3 0.7,-0.8 0.8,-1.4 0.1,-0.5 0.1,-0.9 -0.1,-1.2 -0.1,-0.3 -0.4,-0.5 -0.9,-0.7 -0.5,-0.2 -1.1,-0.2 -1.9,-0.2 h -2.7 c 0,0 0,0 0,0 z m 1.6,7.6 c -0.1,0 -0.1,0 -0.2,0 H 16 l 0.7,-3.3 h 2.8 c 0.7,0 1.1,0 1.4,0.1 0.3,0.1 0.5,0.2 0.6,0.5 0.1,0.2 0.1,0.5 0,1 v 0.2 c -0.1,0.4 -0.2,0.8 -0.4,1 -0.2,0.2 -0.5,0.4 -0.8,0.4 C 19.9,91 19.4,91 18.7,91 Z m -2.5,-0.2 h 2.3 c 0.7,0 1.2,0 1.6,-0.1 0.3,-0.1 0.6,-0.2 0.7,-0.4 0.2,-0.2 0.3,-0.5 0.4,-0.9 v -0.2 c 0.1,-0.4 0.1,-0.7 0,-0.9 C 21.1,88.1 21,88 20.7,88 c -0.1,0 -0.6,0 -1.2,0 h -2.6 z m 3,-4 c -0.1,0 -0.1,0 -0.2,0 h -2.2 l 0.5,-2.4 h 2.1 c 0.6,0 1.1,0 1.4,0.1 0.3,0.1 0.6,0.2 0.7,0.4 0.1,0.2 0.1,0.4 0.1,0.8 -0.1,0.3 -0.2,0.6 -0.4,0.7 -0.2,0.2 -0.4,0.3 -0.8,0.3 -0.2,0.1 -0.6,0.1 -1.2,0.1 z M 17.1,86.6 H 19 c 0.6,0 1.1,0 1.4,-0.1 0.3,-0.1 0.5,-0.2 0.7,-0.3 0.1,-0.1 0.2,-0.4 0.3,-0.6 0.1,-0.3 0,-0.5 0,-0.6 -0.1,-0.1 -0.3,-0.2 -0.5,-0.3 -0.3,-0.1 -0.8,-0.1 -1.4,-0.1 h -1.9 z"
   id="path1057" /> <path
   class="st0"
   d="m 31.4,88.9 c -0.1,0.7 -0.4,1.2 -0.8,1.7 -0.4,0.5 -0.9,0.9 -1.5,1.1 -0.6,0.3 -1.3,0.4 -2,0.4 -0.7,0 -1.3,-0.1 -1.8,-0.4 -0.5,-0.3 -0.8,-0.7 -1,-1.2 -0.2,-0.5 -0.2,-1.1 -0.1,-1.7 l 0.5,-2.4 c 0.1,-0.7 0.4,-1.2 0.8,-1.7 0.4,-0.5 0.9,-0.9 1.5,-1.1 0.6,-0.3 1.3,-0.4 2,-0.4 0.7,0 1.3,0.1 1.8,0.4 0.5,0.3 0.8,0.7 1,1.2 0.2,0.5 0.2,1.1 0.1,1.7 z m -2.6,-4.5 c -0.8,0 -1.4,0.2 -1.9,0.6 -0.5,0.4 -0.8,0.9 -1,1.6 l -0.5,2.3 c -0.2,0.7 -0.1,1.3 0.3,1.6 0.3,0.4 0.9,0.6 1.7,0.6 0.8,0 1.4,-0.2 1.9,-0.6 0.5,-0.4 0.8,-0.9 1,-1.6 l 0.5,-2.3 c 0.1,-0.7 0.1,-1.2 -0.3,-1.6 -0.3,-0.4 -0.9,-0.6 -1.7,-0.6"
   id="path1059" /> <path
   class="st0"
   d="m 27.1,92.3 c 0,0 0,0 0,0 -0.8,0 -1.4,-0.1 -1.9,-0.4 -0.5,-0.3 -0.9,-0.7 -1.1,-1.2 -0.2,-0.5 -0.2,-1.1 -0.1,-1.8 l 0.5,-2.4 c 0.1,-0.7 0.4,-1.3 0.8,-1.8 0.4,-0.5 0.9,-0.9 1.6,-1.2 0.6,-0.3 1.3,-0.4 2.1,-0.4 0.7,0 1.4,0.1 1.9,0.4 0.5,0.3 0.9,0.7 1.1,1.2 0.2,0.5 0.2,1.1 0.1,1.8 l -0.5,2.4 c -0.1,0.7 -0.4,1.3 -0.8,1.8 -0.4,0.5 -0.9,0.9 -1.6,1.2 -0.7,0.3 -1.3,0.4 -2.1,0.4 z m 1.9,-9 c -0.7,0 -1.3,0.1 -1.9,0.4 -0.6,0.3 -1.1,0.6 -1.5,1.1 -0.4,0.5 -0.7,1.1 -0.8,1.7 l -0.5,2.4 c -0.1,0.6 -0.1,1.2 0.1,1.7 0.2,0.5 0.5,0.8 1,1.1 0.5,0.3 1.1,0.4 1.8,0.4 0.7,0 1.4,-0.1 2,-0.4 0.6,-0.3 1.1,-0.6 1.5,-1.1 0.4,-0.5 0.7,-1.1 0.8,-1.7 L 32,86.5 c 0.1,-0.6 0.1,-1.2 -0.1,-1.7 -0.2,-0.5 -0.5,-0.8 -1,-1.1 -0.6,-0.2 -1.2,-0.4 -1.9,-0.4 0,0 0,0 0,0 z m -1.6,7.9 c 0,0 -0.1,0 0,0 -0.9,0 -1.5,-0.2 -1.8,-0.6 -0.4,-0.4 -0.5,-1 -0.3,-1.7 l 0.5,-2.3 c 0.2,-0.7 0.5,-1.3 1,-1.7 0.5,-0.4 1.2,-0.6 2,-0.6 0,0 0,0 0,0 0.8,0 1.4,0.2 1.8,0.6 0.3,0.4 0.4,1 0.3,1.7 l -0.5,2.3 c -0.2,0.7 -0.5,1.3 -1,1.7 -0.6,0.4 -1.2,0.6 -2,0.6 z m 1.3,-6.7 c -0.8,0 -1.4,0.2 -1.8,0.5 -0.5,0.4 -0.8,0.9 -0.9,1.6 l -0.5,2.3 c -0.1,0.7 -0.1,1.2 0.2,1.6 0.3,0.4 0.9,0.5 1.6,0.5 0.8,0 1.4,-0.2 1.9,-0.5 0.5,-0.4 0.8,-0.9 0.9,-1.6 l 0.5,-2.3 c 0.1,-0.7 0.1,-1.2 -0.2,-1.6 -0.3,-0.3 -0.8,-0.5 -1.7,-0.5 v 0 c 0.1,0 0,0 0,0 z"
   id="path1061" /> <path
   class="st0"
   d="m 37.7,87.1 c 0.5,0 1,-0.1 1.3,-0.3 0.4,-0.2 0.6,-0.5 0.7,-0.9 0.1,-0.4 0,-0.7 -0.3,-1 -0.3,-0.2 -0.7,-0.4 -1.2,-0.4 h -2.6 c -0.2,0 -0.4,0 -0.5,0.1 -0.1,0.1 -0.2,0.2 -0.2,0.5 l -0.1,0.2 c -0.1,0.5 -0.3,0.7 -0.7,0.7 -0.4,0 -0.5,-0.2 -0.4,-0.7 0.2,-0.7 0.4,-1.2 0.7,-1.5 0.3,-0.3 0.8,-0.4 1.4,-0.4 h 2.8 c 0.6,0 1,0.1 1.4,0.3 0.4,0.2 0.7,0.5 0.8,0.8 0.2,0.4 0.2,0.8 0.1,1.2 -0.2,0.8 -0.6,1.4 -1.3,1.9 0.5,0.5 0.6,1.2 0.5,2 -0.1,0.5 -0.3,0.9 -0.6,1.3 -0.3,0.4 -0.7,0.7 -1.2,0.9 -0.5,0.2 -1,0.3 -1.5,0.3 H 34 c -0.6,0 -1,-0.1 -1.2,-0.4 -0.2,-0.3 -0.2,-0.8 0,-1.5 0.1,-0.5 0.3,-0.7 0.7,-0.7 0.4,0 0.5,0.2 0.4,0.7 l -0.1,0.2 c -0.1,0.2 -0.1,0.4 0,0.5 0.1,0.1 0.2,0.1 0.4,0.1 h 2.6 c 0.5,0 1,-0.1 1.4,-0.4 0.4,-0.3 0.6,-0.6 0.7,-1 0.1,-0.4 0,-0.7 -0.3,-1 -0.3,-0.2 -0.7,-0.4 -1.2,-0.4 H 36.2 C 35.7,88.2 35.5,88 35.6,87.6 35.7,87.2 36,87 36.5,87 Z"
   id="path1063" /> <path
   class="st0"
   d="m 36.7,92.2 c 0,0 0,0 0,0 h -2.8 c -0.6,0 -1.1,-0.2 -1.3,-0.5 -0.2,-0.3 -0.2,-0.8 -0.1,-1.6 0.1,-0.6 0.5,-0.8 0.8,-0.8 0.2,0 0.4,0.1 0.5,0.2 0.1,0.1 0.1,0.3 0.1,0.6 l -0.1,0.2 c -0.1,0.3 0,0.4 0,0.4 0,0 0.1,0.1 0.3,0.1 h 2.6 c 0,0 0,0 0,0 0.5,0 0.9,-0.1 1.3,-0.4 0.4,-0.3 0.6,-0.6 0.7,-1 0.1,-0.4 0,-0.6 -0.2,-0.9 -0.2,-0.2 -0.6,-0.3 -1.1,-0.3 h -1.2 c -0.3,0 -0.5,-0.1 -0.6,-0.2 -0.1,-0.1 -0.1,-0.3 -0.1,-0.5 0.1,-0.3 0.3,-0.6 0.9,-0.6 0,0 0,0 0,0 h 1.2 c 0.5,0 0.9,-0.1 1.3,-0.3 0.3,-0.2 0.5,-0.5 0.6,-0.8 0.1,-0.4 0,-0.6 -0.3,-0.9 -0.3,-0.2 -0.6,-0.3 -1.1,-0.3 h -2.6 c -0.3,0 -0.4,0 -0.4,0.1 0,0 -0.1,0.1 -0.2,0.4 l 0.1,0.3 c -0.1,0.6 -0.5,0.8 -0.8,0.8 0,0 0,0 0,0 -0.2,0 -0.4,-0.1 -0.5,-0.2 -0.1,-0.1 -0.1,-0.3 -0.1,-0.6 0.2,-0.7 0.4,-1.3 0.7,-1.6 0.3,-0.3 0.8,-0.5 1.4,-0.5 h 2.8 c 0.6,0 1.1,0.1 1.5,0.3 0.4,0.2 0.7,0.5 0.9,0.9 0.2,0.4 0.2,0.8 0.1,1.3 -0.2,0.8 -0.6,1.4 -1.3,1.9 0.4,0.5 0.6,1.2 0.4,2 -0.1,0.5 -0.3,0.9 -0.7,1.3 -0.3,0.4 -0.8,0.7 -1.3,0.9 -0.3,0.2 -0.8,0.3 -1.4,0.3 z m -3.3,-2.6 c -0.3,0 -0.5,0.2 -0.6,0.6 -0.1,0.7 -0.1,1.2 0,1.4 0.2,0.3 0.5,0.4 1.1,0.4 h 2.8 c 0.5,0 1,-0.1 1.5,-0.3 0.5,-0.2 0.9,-0.5 1.2,-0.9 0.3,-0.4 0.5,-0.8 0.6,-1.2 0.2,-0.8 0,-1.4 -0.4,-1.9 l -0.1,-0.1 0.1,-0.1 c 0.7,-0.4 1.1,-1 1.3,-1.8 C 41,85.3 41,84.9 40.8,84.5 40.6,84.2 40.4,83.9 40,83.7 39.6,83.5 39.2,83.4 38.6,83.4 h -2.8 c 0,0 0,0 0,0 -0.6,0 -1,0.1 -1.3,0.4 -0.3,0.3 -0.5,0.8 -0.7,1.5 0,0.2 0,0.4 0,0.5 0.1,0.1 0.2,0.1 0.3,0.1 0.3,0 0.5,-0.2 0.6,-0.6 l 0.1,-0.2 c 0.1,-0.3 0.1,-0.4 0.2,-0.5 0.1,-0.1 0.3,-0.1 0.5,-0.1 h 2.6 c 0.5,0 1,0.1 1.3,0.4 0.3,0.3 0.4,0.6 0.3,1.1 -0.1,0.4 -0.3,0.7 -0.7,0.9 -0.4,0.2 -0.8,0.3 -1.4,0.3 h -1.2 c -0.4,0 -0.7,0.2 -0.8,0.5 0,0.1 0,0.2 0,0.3 0.1,0.1 0.2,0.1 0.5,0.1 h 1.2 c 0.5,0 0.9,0.1 1.2,0.4 0.3,0.3 0.4,0.6 0.3,1.1 -0.1,0.4 -0.4,0.8 -0.8,1.1 -0.4,0.3 -0.9,0.4 -1.4,0.4 0,0 0,0 0,0 H 34 c -0.3,0 -0.4,0 -0.5,-0.2 -0.1,-0.1 -0.1,-0.3 0,-0.6 l 0.1,-0.2 c 0,-0.2 0,-0.4 0,-0.5 0.1,0 0,0 -0.2,0 0,0 0,0 0,0 z"
   id="path1065" /> <path
   class="st0"
   d="m 46.6,88.2 c -0.2,0.1 -0.3,0.2 -0.5,0.2 -0.2,0 -0.3,-0.1 -0.4,-0.2 l -1.5,-2.9 -1.4,6.3 c -0.1,0.5 -0.3,0.7 -0.7,0.7 -0.4,0 -0.5,-0.2 -0.5,-0.6 l 1.6,-7.6 c 0.1,-0.4 0.3,-0.7 0.7,-0.7 0.2,0 0.4,0.1 0.5,0.4 l 1.9,3.5 3.4,-3.5 c 0.2,-0.2 0.4,-0.3 0.7,-0.3 0.4,0 0.5,0.2 0.4,0.7 l -1.6,7.6 c -0.1,0.4 -0.3,0.6 -0.7,0.6 -0.4,0 -0.5,-0.2 -0.4,-0.7 l 1.4,-6.3 z"
   id="path1067" /> <path
   class="st0"
   d="m 48.4,92.4 c 0,0 0,0 0,0 -0.2,0 -0.4,-0.1 -0.5,-0.2 -0.1,-0.1 -0.1,-0.3 -0.1,-0.6 l 1.3,-5.9 -2.5,2.7 c -0.2,0.1 -0.4,0.2 -0.6,0.2 0,0 0,0 0,0 -0.2,0 -0.4,-0.1 -0.5,-0.2 l -1.4,-2.7 -1.3,6 c -0.1,0.6 -0.5,0.8 -0.8,0.8 -0.2,0 -0.4,-0.1 -0.5,-0.2 C 41.4,92.2 41.4,92 41.4,91.7 L 43,84.1 c 0.1,-0.6 0.5,-0.7 0.8,-0.7 0,0 0,0 0,0 0.3,0 0.5,0.1 0.6,0.4 l 1.8,3.4 3.3,-3.4 c 0.2,-0.2 0.5,-0.4 0.7,-0.4 0,0 0,0 0,0 0.2,0 0.4,0.1 0.5,0.2 0.1,0.1 0.1,0.3 0.1,0.6 l -1.6,7.6 c 0,0.3 -0.3,0.6 -0.8,0.6 z m 1.1,-7.5 -1.4,6.7 c 0,0.2 0,0.4 0,0.5 0.1,0.1 0.2,0.1 0.3,0.1 0.4,0 0.5,-0.2 0.6,-0.6 L 50.6,84 c 0,-0.2 0,-0.3 0,-0.4 -0.1,-0.1 -0.2,-0.1 -0.3,-0.1 0,0 0,0 0,0 -0.2,0 -0.4,0.1 -0.6,0.3 l -3.5,3.6 -1.9,-3.6 c -0.1,-0.2 -0.2,-0.3 -0.4,-0.3 -0.3,0 -0.5,0.2 -0.6,0.6 l -1.6,7.6 c 0,0.2 0,0.3 0,0.4 0.1,0.1 0.2,0.1 0.3,0.1 0.3,0 0.5,-0.2 0.6,-0.6 L 44,85 l 1.6,3.2 c 0.1,0.1 0.2,0.1 0.3,0.1 0,0 0,0 0,0 0.1,0 0.3,-0.1 0.4,-0.2 z"
   id="path1069" /> <path
   class="st0"
   d="m 58.9,89 c -0.1,0.7 -0.4,1.2 -0.8,1.7 -0.4,0.5 -0.9,0.9 -1.5,1.1 -0.6,0.3 -1.3,0.4 -2,0.4 -0.7,0 -1.3,-0.1 -1.8,-0.4 -0.5,-0.3 -0.8,-0.7 -1,-1.2 -0.2,-0.5 -0.2,-1.1 -0.1,-1.7 l 0.5,-2.4 c 0.1,-0.7 0.4,-1.2 0.8,-1.7 0.4,-0.5 0.9,-0.9 1.5,-1.1 0.6,-0.3 1.3,-0.4 2,-0.4 0.7,0 1.3,0.1 1.8,0.4 0.5,0.3 0.8,0.7 1,1.2 0.2,0.5 0.2,1.1 0.1,1.7 z m -2.6,-4.5 c -0.8,0 -1.4,0.2 -1.9,0.6 -0.5,0.4 -0.8,0.9 -1,1.6 L 52.8,89 c -0.2,0.7 -0.1,1.3 0.3,1.6 0.3,0.4 0.9,0.6 1.7,0.6 0.8,0 1.4,-0.2 1.9,-0.6 0.5,-0.4 0.8,-0.9 1,-1.6 l 0.5,-2.3 c 0.1,-0.7 0.1,-1.2 -0.3,-1.6 -0.3,-0.5 -0.8,-0.6 -1.6,-0.6"
   id="path1071" /> <path
   class="st0"
   d="m 54.6,92.4 c 0,0 0,0 0,0 -0.8,0 -1.4,-0.1 -1.9,-0.4 C 52.2,91.7 51.8,91.3 51.6,90.8 51.4,90.3 51.4,89.7 51.5,89 L 52,86.6 c 0.1,-0.7 0.4,-1.3 0.8,-1.8 0.4,-0.5 0.9,-0.9 1.6,-1.2 0.6,-0.3 1.3,-0.4 2.1,-0.4 0.7,0 1.4,0.1 1.9,0.4 0.5,0.3 0.9,0.7 1.1,1.2 0.2,0.5 0.2,1.1 0.1,1.8 L 59,89 c -0.1,0.7 -0.4,1.3 -0.8,1.8 -0.4,0.5 -0.9,0.9 -1.6,1.2 -0.6,0.3 -1.3,0.4 -2,0.4 z m 1.9,-9 c -0.7,0 -1.3,0.1 -1.9,0.4 -0.6,0.3 -1.1,0.6 -1.5,1.1 -0.4,0.5 -0.7,1.1 -0.8,1.7 L 51.7,89 c -0.1,0.6 -0.1,1.2 0.1,1.7 0.2,0.5 0.5,0.8 1,1.1 0.5,0.3 1.1,0.4 1.8,0.4 0.7,0 1.4,-0.1 2,-0.4 0.6,-0.3 1.1,-0.6 1.5,-1.1 0.4,-0.5 0.7,-1.1 0.8,-1.7 l 0.5,-2.4 c 0.1,-0.6 0.1,-1.2 -0.1,-1.7 -0.2,-0.5 -0.5,-0.8 -1,-1.1 -0.5,-0.2 -1.1,-0.4 -1.8,-0.4 0,0 0,0 0,0 z m -1.7,7.9 c 0,0 0,0 0,0 -0.9,0 -1.5,-0.2 -1.8,-0.6 -0.4,-0.4 -0.5,-1 -0.3,-1.7 l 0.5,-2.3 c 0.2,-0.7 0.5,-1.3 1,-1.7 0.5,-0.4 1.2,-0.6 2,-0.6 v 0 c 0.8,0 1.4,0.2 1.8,0.6 0.3,0.4 0.4,1 0.3,1.7 L 57.8,89 c -0.2,0.7 -0.5,1.3 -1,1.7 -0.5,0.4 -1.2,0.6 -2,0.6 z m 1.4,-6.7 c -0.8,0 -1.4,0.2 -1.8,0.5 -0.5,0.4 -0.8,0.9 -0.9,1.6 L 52.9,89 c -0.1,0.7 -0.1,1.2 0.2,1.6 0.3,0.4 0.9,0.5 1.6,0.5 0.8,0 1.4,-0.2 1.9,-0.5 0.5,-0.4 0.8,-0.9 0.9,-1.6 L 58,86.7 C 58.1,86 58.1,85.5 57.8,85.1 57.6,84.7 57,84.6 56.2,84.6 v 0 c 0,0 0,0 0,0 z"
   id="path1073" /> <path
   class="st0"
   d="m 66.2,88.7 -0.6,3 c 0,0.2 -0.1,0.3 -0.3,0.4 -0.1,0.1 -0.3,0.2 -0.5,0.2 -0.2,0 -0.3,-0.1 -0.4,-0.2 -0.1,-0.1 -0.1,-0.3 -0.1,-0.4 l 0.6,-3 h -0.1 c -0.4,0 -0.8,0.1 -1.1,0.3 -0.3,0.2 -0.6,0.5 -0.8,0.9 -0.1,0.2 -0.3,0.6 -0.6,1.1 -0.2,0.4 -0.5,0.8 -0.9,1 -0.4,0.2 -0.7,0.3 -1.2,0.3 -0.2,0 -0.4,-0.1 -0.5,-0.2 -0.1,-0.1 -0.1,-0.2 -0.1,-0.4 0.1,-0.4 0.4,-0.6 0.9,-0.6 0,0 0.1,0 0.2,-0.1 0.1,-0.1 0.1,-0.2 0.2,-0.3 0.2,-0.4 0.4,-0.7 0.5,-1 0.2,-0.4 0.5,-0.8 0.9,-1.1 0.4,-0.4 0.8,-0.7 1.2,-0.8 -0.2,-0.2 -0.3,-0.6 -0.5,-1.2 -0.2,-0.6 -0.4,-1 -0.6,-1.3 -0.2,-0.3 -0.3,-0.5 -0.5,-0.5 -0.2,0 -0.4,-0.1 -0.5,-0.2 -0.1,-0.1 -0.1,-0.2 -0.1,-0.4 0.1,-0.4 0.3,-0.6 0.8,-0.6 0.4,0 0.7,0.1 1,0.4 0.3,0.2 0.6,0.6 0.8,1 0.1,0.3 0.3,0.7 0.5,1.1 0.2,0.4 0.3,0.7 0.4,0.9 0.1,0.2 0.2,0.4 0.4,0.4 h 0.1 L 66,84.3 c 0,-0.2 0.1,-0.4 0.3,-0.5 0.1,-0.1 0.3,-0.2 0.5,-0.2 0.4,0 0.6,0.2 0.5,0.7 l -0.7,3.1 h 0.1 c 0.1,0 0.3,-0.1 0.5,-0.4 0.2,-0.2 0.5,-0.5 0.9,-0.9 0.4,-0.5 0.8,-0.9 1.1,-1.2 0.3,-0.3 0.6,-0.6 1,-0.8 0.4,-0.3 0.8,-0.4 1.2,-0.4 0.2,0 0.4,0.1 0.5,0.2 0.1,0.1 0.1,0.2 0.1,0.4 0,0.2 -0.1,0.3 -0.3,0.4 -0.1,0.1 -0.3,0.2 -0.6,0.2 -0.2,0 -0.5,0.2 -0.8,0.5 -0.3,0.3 -0.7,0.7 -1.1,1.3 -0.4,0.5 -0.8,0.9 -1,1.2 0.3,0.1 0.5,0.3 0.7,0.5 0.2,0.2 0.3,0.5 0.4,0.7 0.2,0.5 0.2,1 0.2,1.5 0,0.2 0,0.4 0.1,0.5 0,0.1 0.1,0.2 0.2,0.2 0.2,0 0.4,0.1 0.5,0.2 0.1,0.1 0.2,0.2 0.1,0.4 -0.1,0.4 -0.4,0.6 -0.9,0.6 -0.4,0 -0.8,-0.1 -1,-0.4 -0.3,-0.2 -0.4,-0.6 -0.4,-1 0,-0.2 0,-0.3 0,-0.4 C 68,90.3 68,90 67.9,89.7 67.8,89.5 67.7,89.3 67.6,89.1 67.1,88.8 66.7,88.7 66.2,88.7 Z"
   id="path1075" /> <path
   class="st0"
   d="m 69.3,92.4 c 0,0 0,0 0,0 -0.5,0 -0.8,-0.1 -1.1,-0.4 -0.3,-0.3 -0.4,-0.6 -0.5,-1.1 0,-0.2 0,-0.3 0,-0.4 C 67.6,90.1 67.6,89.8 67.5,89.6 67.4,89.4 67.3,89.2 67.2,89 67,88.8 66.7,88.7 66.3,88.7 v 0 l -0.6,2.9 c 0,0.2 -0.2,0.4 -0.3,0.5 -0.2,0.1 -0.4,0.2 -0.6,0.2 0,0 0,0 0,0 -0.2,0 -0.4,-0.1 -0.5,-0.2 -0.1,-0.1 -0.1,-0.3 -0.1,-0.5 l 0.6,-2.9 c -0.4,0 -0.7,0.1 -1,0.3 -0.3,0.2 -0.6,0.5 -0.8,0.9 -0.1,0.2 -0.3,0.6 -0.6,1.1 -0.3,0.4 -0.6,0.8 -0.9,1 -0.4,0.2 -0.8,0.4 -1.2,0.4 0,0 0,0 0,0 -0.3,0 -0.4,-0.1 -0.6,-0.2 -0.1,-0.1 -0.2,-0.3 -0.1,-0.5 0.1,-0.3 0.3,-0.6 0.9,-0.6 0,0 0,0 0,0 0,0 0,0 0.1,-0.1 0.1,-0.1 0.1,-0.1 0.2,-0.2 0.2,-0.4 0.4,-0.7 0.5,-1 0.2,-0.4 0.5,-0.8 0.9,-1.2 0.4,-0.4 0.7,-0.6 1.2,-0.8 -0.2,-0.3 -0.3,-0.6 -0.5,-1.1 -0.2,-0.6 -0.4,-1 -0.6,-1.3 C 62.1,85.2 62,85 61.8,85 61.6,85 61.4,84.9 61.2,84.8 61.1,84.7 61,84.6 61.1,84.3 61.2,84 61.4,83.7 62,83.7 c 0,0 0,0 0,0 0.4,0 0.8,0.1 1.1,0.4 0.3,0.2 0.6,0.6 0.8,1.1 0.1,0.3 0.3,0.7 0.5,1.1 0.2,0.4 0.3,0.7 0.4,0.9 0.1,0.2 0.2,0.3 0.3,0.3 l 0.7,-3 c 0.1,-0.2 0.2,-0.4 0.3,-0.5 0.2,-0.1 0.3,-0.2 0.6,-0.2 0.2,0 0.4,0.1 0.5,0.2 0.1,0.1 0.1,0.3 0.1,0.6 l -0.6,3 c 0.1,0 0.2,-0.1 0.4,-0.3 0.2,-0.2 0.5,-0.5 0.8,-0.9 0.4,-0.5 0.8,-0.9 1.1,-1.2 0.3,-0.3 0.7,-0.6 1,-0.9 0.4,-0.3 0.9,-0.4 1.2,-0.4 0.3,0 0.4,0.1 0.6,0.2 0.1,0.1 0.2,0.3 0.1,0.5 0,0.2 -0.1,0.4 -0.3,0.5 C 71.4,85 71.2,85 70.9,85 c -0.2,0 -0.4,0.2 -0.7,0.4 -0.3,0.3 -0.7,0.7 -1.1,1.3 -0.4,0.4 -0.7,0.8 -0.9,1.1 0.2,0.1 0.4,0.3 0.6,0.5 0.2,0.2 0.3,0.5 0.4,0.7 0.2,0.5 0.2,1 0.2,1.5 0,0.2 0,0.3 0,0.4 0,0 0,0.1 0.1,0.1 0.2,0 0.4,0.1 0.6,0.2 0.1,0.1 0.2,0.3 0.1,0.5 0,0.4 -0.2,0.7 -0.9,0.7 z m -3.2,-3.8 h 0.2 c 0.5,0 0.8,0.1 1.1,0.4 0.2,0.2 0.3,0.4 0.4,0.7 0.1,0.2 0.1,0.6 0.2,1 0,0.1 0,0.2 0,0.4 0,0.4 0.2,0.7 0.4,0.9 0.2,0.2 0.6,0.3 0.9,0.3 0.5,0 0.7,-0.2 0.8,-0.5 0,-0.1 0,-0.2 -0.1,-0.3 -0.1,-0.1 -0.2,-0.1 -0.4,-0.1 -0.1,0 -0.2,0 -0.3,-0.2 0,-0.1 -0.1,-0.3 -0.1,-0.5 0,-0.5 -0.1,-1 -0.2,-1.4 -0.1,-0.2 -0.2,-0.5 -0.4,-0.7 -0.2,-0.2 -0.4,-0.4 -0.7,-0.5 L 67.8,88 67.9,87.9 c 0.3,-0.3 0.6,-0.7 1,-1.1 0.5,-0.6 0.8,-1 1.1,-1.3 0.3,-0.3 0.6,-0.5 0.8,-0.5 0.2,0 0.4,-0.1 0.5,-0.1 0.1,-0.1 0.2,-0.2 0.2,-0.3 0,-0.1 0,-0.2 -0.1,-0.3 -0.1,-0.1 -0.2,-0.1 -0.4,-0.1 0,0 0,0 0,0 -0.3,0 -0.7,0.1 -1.1,0.4 -0.4,0.2 -0.7,0.5 -1,0.8 -0.3,0.3 -0.7,0.7 -1.1,1.2 -0.4,0.4 -0.7,0.8 -0.9,1 -0.3,0.3 -0.5,0.4 -0.6,0.4 0,0 0,0 0,0 h -0.2 l 0.7,-3.3 c 0,-0.2 0,-0.3 0,-0.4 -0.1,-0.1 -0.2,-0.1 -0.3,-0.1 -0.2,0 -0.3,0 -0.4,0.1 -0.1,0.1 -0.2,0.2 -0.2,0.4 l -0.7,3.2 H 65 c -0.2,0 -0.3,-0.1 -0.5,-0.4 -0.1,-0.2 -0.3,-0.5 -0.4,-1 -0.2,-0.4 -0.3,-0.8 -0.5,-1.1 -0.2,-0.4 -0.5,-0.8 -0.7,-1 -0.3,-0.2 -0.6,-0.3 -0.9,-0.3 0,0 0,0 0,0 -0.4,0 -0.6,0.2 -0.7,0.5 0,0.1 0,0.2 0.1,0.3 0.1,0.1 0.2,0.1 0.4,0.1 0.2,0 0.5,0.2 0.6,0.5 0.2,0.3 0.3,0.8 0.6,1.3 0.2,0.5 0.4,0.9 0.5,1.1 l 0.1,0.1 h -0.1 c -0.4,0.2 -0.8,0.4 -1.2,0.8 -0.4,0.4 -0.7,0.7 -0.8,1.1 -0.1,0.2 -0.3,0.6 -0.5,1 -0.1,0.1 -0.1,0.2 -0.2,0.3 -0.1,0.1 -0.2,0.1 -0.3,0.1 -0.4,0 -0.7,0.2 -0.7,0.5 0,0.1 0,0.2 0.1,0.3 0.1,0.1 0.2,0.1 0.4,0.1 0,0 0,0 0,0 0.4,0 0.8,-0.1 1.1,-0.3 0.3,-0.2 0.6,-0.5 0.9,-0.9 0.2,-0.5 0.4,-0.8 0.6,-1.1 0.2,-0.4 0.5,-0.7 0.9,-0.9 0.4,-0.2 0.7,-0.3 1.2,-0.3 h 0.2 l -0.7,3.1 c 0,0.1 0,0.3 0,0.4 0.1,0.1 0.2,0.1 0.3,0.1 0,0 0,0 0,0 0.2,0 0.3,-0.1 0.4,-0.2 0.1,-0.1 0.2,-0.2 0.2,-0.4 z"
   id="path1077" /> <path
   class="st0"
   d="m 73,91.7 c -0.1,0.4 -0.3,0.6 -0.7,0.6 -0.4,0 -0.5,-0.2 -0.5,-0.7 L 73.4,84 c 0.1,-0.4 0.3,-0.7 0.7,-0.7 0.4,0 0.6,0.2 0.5,0.7 L 74,87 h 4.9 l 0.6,-2.9 c 0.1,-0.4 0.3,-0.7 0.7,-0.7 0.4,0 0.5,0.2 0.4,0.7 L 79,91.7 c -0.1,0.4 -0.3,0.6 -0.7,0.6 -0.4,0 -0.5,-0.2 -0.5,-0.7 L 78.6,88 h -4.9 z"
   id="path1079" /> <path
   class="st0"
   d="m 78.3,92.5 c 0,0 0,0 0,0 -0.2,0 -0.4,-0.1 -0.5,-0.2 -0.1,-0.1 -0.1,-0.3 -0.1,-0.6 l 0.7,-3.5 h -4.7 l -0.8,3.5 c -0.1,0.5 -0.4,0.7 -0.8,0.7 0,0 0,0 0,0 -0.2,0 -0.4,-0.1 -0.5,-0.2 -0.1,-0.1 -0.1,-0.3 -0.1,-0.6 L 73.1,84 c 0.1,-0.6 0.5,-0.7 0.8,-0.7 0.2,0 0.4,0.1 0.5,0.2 0.1,0.1 0.1,0.3 0.1,0.6 l -0.6,2.8 h 4.7 l 0.6,-2.8 c 0.1,-0.6 0.5,-0.7 0.8,-0.7 0,0 0,0 0,0 0.2,0 0.4,0.1 0.5,0.2 0.1,0.1 0.1,0.3 0.1,0.6 L 79,91.8 c 0.1,0.4 -0.2,0.7 -0.7,0.7 z M 73.7,88 h 5.1 L 78,91.7 c 0,0.2 0,0.3 0,0.4 0.1,0.1 0.2,0.1 0.3,0.1 0,0 0,0 0,0 0.3,0 0.5,-0.2 0.6,-0.6 L 80.5,84 c 0,-0.2 0,-0.3 0,-0.4 -0.1,-0.1 -0.2,-0.1 -0.3,-0.1 -0.3,0 -0.5,0.2 -0.6,0.6 l -0.6,3 h -5.1 l 0.7,-3 c 0,-0.2 0,-0.3 0,-0.4 -0.1,-0.1 -0.2,-0.1 -0.3,-0.1 0,0 0,0 0,0 -0.3,0 -0.5,0.2 -0.6,0.6 l -1.6,7.6 c 0,0.2 0,0.3 0,0.4 0.1,0.1 0.2,0.1 0.3,0.1 0,0 0,0 0,0 0.3,0 0.5,-0.2 0.6,-0.6 z"
   id="path1081" /> <path
   class="st0"
   d="m 88.8,89.1 c -0.1,0.7 -0.4,1.2 -0.8,1.7 -0.4,0.5 -0.9,0.9 -1.5,1.1 -0.6,0.3 -1.3,0.4 -2,0.4 -0.7,0 -1.3,-0.1 -1.8,-0.4 -0.5,-0.3 -0.8,-0.7 -1,-1.2 -0.2,-0.5 -0.2,-1.1 -0.1,-1.7 l 0.5,-2.4 c 0.1,-0.7 0.4,-1.2 0.8,-1.7 0.4,-0.5 0.9,-0.9 1.5,-1.1 0.6,-0.3 1.3,-0.4 2,-0.4 0.7,0 1.3,0.1 1.8,0.4 0.5,0.3 0.8,0.7 1,1.2 0.2,0.5 0.2,1.1 0.1,1.7 z m -2.6,-4.5 c -0.8,0 -1.4,0.2 -1.9,0.6 -0.5,0.4 -0.8,0.9 -1,1.6 l -0.5,2.3 c -0.2,0.7 -0.1,1.3 0.3,1.6 0.3,0.4 0.9,0.6 1.7,0.6 0.8,0 1.4,-0.2 1.9,-0.6 0.5,-0.4 0.8,-0.9 1,-1.6 l 0.5,-2.3 c 0.1,-0.7 0.1,-1.2 -0.3,-1.6 -0.3,-0.5 -0.9,-0.6 -1.7,-0.6"
   id="path1083" /> <path
   class="st0"
   d="m 84.5,92.5 c 0,0 0,0 0,0 -0.8,0 -1.4,-0.1 -1.9,-0.4 -0.5,-0.3 -0.9,-0.7 -1.1,-1.2 -0.2,-0.5 -0.2,-1.1 -0.1,-1.8 l 0.5,-2.4 c 0.1,-0.7 0.4,-1.3 0.8,-1.8 0.4,-0.5 0.9,-0.9 1.6,-1.2 0.6,-0.3 1.3,-0.4 2.1,-0.4 0.7,0 1.4,0.1 1.9,0.4 0.5,0.3 0.9,0.7 1.1,1.2 0.2,0.5 0.2,1.1 0.1,1.8 L 89,89.1 c -0.1,0.7 -0.4,1.3 -0.8,1.8 -0.4,0.5 -0.9,0.9 -1.6,1.2 -0.7,0.3 -1.4,0.4 -2.1,0.4 z m 1.9,-9 c -0.7,0 -1.3,0.1 -1.9,0.4 -0.6,0.3 -1.1,0.6 -1.5,1.1 -0.4,0.5 -0.7,1.1 -0.8,1.7 l -0.5,2.4 c -0.1,0.6 -0.1,1.2 0.1,1.7 0.2,0.5 0.5,0.8 1,1.1 0.5,0.3 1.1,0.4 1.8,0.4 0.7,0 1.4,-0.1 2,-0.4 0.6,-0.3 1.1,-0.6 1.5,-1.1 0.4,-0.5 0.7,-1.1 0.8,-1.7 l 0.5,-2.4 c 0.1,-0.6 0.1,-1.2 -0.1,-1.7 -0.2,-0.5 -0.5,-0.8 -1,-1.1 -0.6,-0.2 -1.2,-0.4 -1.9,-0.4 0,0 0,0 0,0 z m -1.6,7.9 c -0.1,0 -0.1,0 0,0 -0.9,0 -1.5,-0.2 -1.8,-0.6 -0.4,-0.4 -0.5,-1 -0.3,-1.7 l 0.5,-2.3 c 0.2,-0.7 0.5,-1.3 1,-1.7 0.5,-0.4 1.2,-0.6 2,-0.6 0,0 0,0 0,0 0.8,0 1.4,0.2 1.8,0.6 0.3,0.4 0.4,1 0.3,1.7 l -0.5,2.3 c -0.2,0.7 -0.5,1.3 -1,1.7 -0.6,0.4 -1.2,0.6 -2,0.6 z m 1.3,-6.7 c -0.8,0 -1.4,0.2 -1.8,0.5 -0.5,0.4 -0.8,0.9 -0.9,1.6 l -0.5,2.3 c -0.1,0.7 -0.1,1.2 0.2,1.6 0.3,0.4 0.9,0.5 1.6,0.5 0.8,0 1.4,-0.2 1.9,-0.5 0.5,-0.4 0.8,-0.9 0.9,-1.6 L 88,86.8 c 0.1,-0.7 0.1,-1.2 -0.2,-1.6 -0.3,-0.4 -0.9,-0.5 -1.7,-0.5 v 0 c 0.1,0 0,0 0,0 z"
   id="path1085" /> <path
   class="st0"
   d="m 93.5,92.3 c -0.9,0 -1.6,-0.1 -2.1,-0.3 -0.5,-0.2 -0.8,-0.4 -1,-0.8 -0.2,-0.4 -0.2,-0.9 0,-1.5 l 0.8,-3.6 c 0.1,-0.6 0.4,-1.1 0.7,-1.5 0.3,-0.4 0.7,-0.6 1.2,-0.8 0.5,-0.2 1.2,-0.2 2,-0.2 h 2.2 c 0.6,0 0.9,0.1 1.1,0.4 0.2,0.3 0.3,0.7 0.1,1.3 -0.1,0.5 -0.4,0.8 -0.8,0.8 -0.2,0 -0.3,-0.1 -0.4,-0.2 -0.1,-0.1 -0.1,-0.3 0,-0.5 0,-0.2 0,-0.4 0,-0.5 0,-0.1 -0.2,-0.1 -0.4,-0.1 h -2.1 c -0.6,0 -1.1,0 -1.4,0.1 -0.3,0.1 -0.6,0.2 -0.7,0.4 -0.2,0.2 -0.3,0.5 -0.4,0.9 l -0.8,3.6 c -0.1,0.4 -0.1,0.7 0,0.9 0.1,0.2 0.3,0.3 0.6,0.4 0.3,0.1 0.9,0.1 1.6,0.1 h 1.9 c 0.2,0 0.4,0 0.5,-0.1 0.1,-0.1 0.2,-0.2 0.2,-0.5 0,-0.2 0.1,-0.4 0.3,-0.5 0.1,-0.1 0.3,-0.2 0.5,-0.2 0.4,0 0.5,0.3 0.4,0.8 -0.1,0.6 -0.3,1 -0.7,1.2 -0.3,0.3 -0.8,0.4 -1.3,0.4 z"
   id="path1087" /> <path
   class="st0"
   d="m 95.6,92.4 c -0.1,0 -0.1,0 0,0 h -2 c -0.9,0 -1.7,-0.1 -2.1,-0.3 -0.5,-0.2 -0.9,-0.5 -1,-0.9 -0.2,-0.4 -0.2,-0.9 0,-1.6 L 91.3,86 c 0.1,-0.7 0.4,-1.2 0.7,-1.6 0.3,-0.4 0.8,-0.7 1.3,-0.8 0.5,-0.2 1.2,-0.3 2.1,-0.2 h 2.2 c 0.6,0 1,0.2 1.2,0.4 0.2,0.3 0.3,0.7 0.2,1.3 -0.1,0.7 -0.5,0.8 -0.9,0.8 0,0 0,0 0,0 -0.2,0 -0.4,-0.1 -0.5,-0.2 -0.1,-0.1 -0.1,-0.4 -0.1,-0.6 0.1,-0.3 0,-0.3 0,-0.4 0,0 -0.1,-0.1 -0.3,-0.1 h -2.1 c -0.6,0 -1.1,0 -1.4,0.1 -0.3,0.1 -0.5,0.2 -0.6,0.4 -0.1,0.2 -0.3,0.5 -0.4,0.9 l -0.8,3.6 c -0.1,0.4 -0.1,0.7 0,0.9 0.1,0.2 0.2,0.3 0.5,0.3 0.3,0.1 0.8,0.1 1.6,0.1 h 1.9 c 0.2,0 0.3,0 0.4,-0.1 0.1,0 0.1,-0.1 0.2,-0.4 0.1,-0.2 0.2,-0.4 0.3,-0.6 0.2,-0.1 0.3,-0.2 0.6,-0.2 0.2,0 0.4,0.1 0.5,0.2 0.1,0.2 0.1,0.4 0.1,0.7 -0.1,0.6 -0.4,1 -0.7,1.3 -0.7,0.5 -1.2,0.6 -1.7,0.6 z m -2.1,-0.2 h 2 c 0.5,0 0.9,-0.1 1.3,-0.4 0.3,-0.3 0.5,-0.6 0.6,-1.2 0.1,-0.3 0,-0.4 0,-0.5 C 97.3,90 97.2,90 97.1,90 c 0,0 0,0 0,0 -0.2,0 -0.3,0.1 -0.4,0.2 -0.1,0.1 -0.2,0.3 -0.2,0.5 -0.1,0.3 -0.1,0.4 -0.2,0.5 -0.1,0.1 -0.3,0.1 -0.5,0.1 h -1.9 c -0.7,0 -1.3,0 -1.6,-0.1 -0.4,-0.1 -0.6,-0.2 -0.7,-0.5 -0.1,-0.2 -0.1,-0.5 0,-1 l 0.8,-3.6 c 0.1,-0.4 0.2,-0.8 0.4,-1 0.2,-0.2 0.4,-0.4 0.8,-0.4 0.3,-0.1 0.8,-0.1 1.5,-0.1 h 2.1 c 0.3,0 0.4,0.1 0.5,0.2 0.1,0.1 0.1,0.3 0,0.5 0,0.2 0,0.3 0,0.5 0.1,0.1 0.2,0.1 0.3,0.1 0,0 0,0 0,0 0.3,0 0.5,-0.2 0.6,-0.7 0.1,-0.5 0.1,-0.9 -0.1,-1.2 -0.2,-0.2 -0.5,-0.4 -1.1,-0.4 h -2.2 c -0.8,0 -1.5,0.1 -2,0.2 -0.5,0.2 -0.9,0.4 -1.2,0.8 -0.3,0.4 -0.5,0.8 -0.6,1.5 l -0.8,3.6 c -0.1,0.6 -0.1,1.1 0,1.5 0.1,0.3 0.4,0.6 0.9,0.7 0.4,0.2 1.1,0.3 2,0.3 z"
   id="path1089" /> <path
   class="st0"
   d="m 106.1,83.6 c 0.5,0 0.7,0.2 0.6,0.6 -0.1,0.4 -0.4,0.6 -0.8,0.6 h -2 l -1.5,7.1 c 0,0.2 -0.1,0.3 -0.3,0.4 -0.2,0.1 -0.3,0.2 -0.5,0.2 -0.2,0 -0.4,-0.1 -0.4,-0.2 -0.1,-0.1 -0.1,-0.3 -0.1,-0.5 l 1.5,-7.1 h -2 c -0.2,0 -0.4,-0.1 -0.5,-0.2 -0.1,-0.1 -0.1,-0.2 -0.1,-0.4 0,-0.2 0.1,-0.3 0.3,-0.4 0.1,-0.1 0.3,-0.2 0.5,-0.2 z"
   id="path1091" /> <path
   class="st0"
   d="m 101.5,92.5 c 0,0 0,0 0,0 -0.2,0 -0.4,-0.1 -0.5,-0.2 -0.1,-0.1 -0.1,-0.3 -0.1,-0.5 l 1.5,-7 h -1.9 c -0.2,0 -0.4,-0.1 -0.6,-0.2 -0.1,-0.1 -0.2,-0.2 -0.1,-0.5 0,-0.2 0.1,-0.4 0.3,-0.5 0.2,-0.1 0.4,-0.2 0.6,-0.2 h 5.4 c 0.3,0 0.5,0.1 0.6,0.2 0.1,0.1 0.1,0.3 0.1,0.5 -0.1,0.3 -0.3,0.6 -0.9,0.6 0,0 0,0 0,0 H 104 l -1.5,7 c 0,0.2 -0.2,0.4 -0.3,0.5 -0.3,0.3 -0.5,0.3 -0.7,0.3 z m -0.8,-8.8 c -0.2,0 -0.3,0 -0.5,0.1 -0.1,0.1 -0.2,0.2 -0.2,0.3 0,0.1 0,0.2 0.1,0.3 0.1,0.1 0.2,0.1 0.4,0.1 h 2.2 l -1.6,7.2 c 0,0.2 0,0.3 0,0.4 0.1,0.1 0.2,0.1 0.4,0.1 0,0 0,0 0,0 0.2,0 0.3,-0.1 0.5,-0.2 0.1,-0.1 0.2,-0.2 0.2,-0.4 l 1.5,-7.2 h 2.1 c 0.4,0 0.6,-0.2 0.7,-0.5 0,-0.1 0,-0.2 0,-0.3 -0.1,-0.1 -0.2,-0.1 -0.4,-0.1 l -5.4,0.2 c 0,0 0,0 0,0 z"
   id="path1093" /> <path
   class="st0"
   d="m 108.4,88 -0.7,3.2 h 5.4 c 0.2,0 0.4,0.1 0.5,0.2 0.1,0.1 0.1,0.2 0.1,0.4 0,0.2 -0.1,0.3 -0.3,0.4 -0.1,0.1 -0.3,0.1 -0.6,0.1 h -6 c -0.2,0 -0.3,-0.1 -0.4,-0.2 -0.1,-0.1 -0.1,-0.3 0,-0.5 l 1.6,-7.4 c 0,-0.2 0.1,-0.4 0.3,-0.5 0.1,-0.1 0.3,-0.2 0.5,-0.2 h 6 c 0.2,0 0.4,0.1 0.5,0.2 0.1,0.1 0.1,0.2 0.1,0.4 0,0.2 -0.1,0.3 -0.3,0.4 -0.1,0.1 -0.3,0.1 -0.6,0.1 h -5.4 l -0.5,2.1 h 3.7 c 0.3,0 0.4,0.1 0.6,0.2 0.1,0.1 0.2,0.2 0.1,0.4 -0.1,0.4 -0.4,0.5 -0.9,0.5 z"
   id="path1095" /> <path
   class="st0"
   d="m 112.9,92.5 c 0,0 0,0 0,0 h -6 c -0.2,0 -0.4,-0.1 -0.5,-0.2 -0.1,-0.1 -0.1,-0.3 -0.1,-0.6 l 1.6,-7.4 c 0.1,-0.2 0.1,-0.4 0.3,-0.6 0.1,-0.1 0.3,-0.2 0.5,-0.2 0,0 0,0 0,0 h 6 c 0.3,0 0.4,0.1 0.6,0.2 0.1,0.1 0.2,0.3 0.1,0.5 0,0.2 -0.1,0.4 -0.3,0.5 -0.2,0.1 -0.4,0.2 -0.6,0.2 h -5.3 l -0.4,1.9 h 3.5 c 0.3,0 0.5,0.1 0.6,0.2 0.1,0.1 0.2,0.3 0.1,0.5 -0.1,0.4 -0.4,0.6 -1,0.6 h -3.6 l -0.6,3 h 5.3 c 0.3,0 0.4,0.1 0.6,0.2 0.1,0.1 0.2,0.3 0.1,0.5 0,0.2 -0.1,0.4 -0.3,0.5 -0.2,0.1 -0.4,0.2 -0.6,0.2 z m -4.2,-8.8 c -0.1,0 -0.3,0 -0.4,0.1 -0.1,0.1 -0.2,0.3 -0.2,0.4 l -1.6,7.4 c 0,0.2 0,0.3 0,0.4 0.1,0.1 0.1,0.1 0.3,0.1 h 6 c 0.2,0 0.4,0 0.5,-0.1 0.1,-0.1 0.2,-0.2 0.2,-0.3 0,-0.2 0,-0.3 -0.1,-0.3 -0.1,-0.1 -0.2,-0.1 -0.4,-0.1 h -5.5 l 0.7,-3.4 h 3.7 c 0,0 0,0 0,0 0.5,0 0.7,-0.2 0.8,-0.5 0,-0.2 0,-0.3 -0.1,-0.3 C 112.5,87 112.3,87 112.1,87 h -3.8 l 0.5,-2.3 h 5.5 c 0.2,0 0.4,0 0.5,-0.1 0.1,-0.1 0.2,-0.2 0.2,-0.3 0,-0.2 0,-0.3 -0.1,-0.3 -0.1,-0.1 -0.2,-0.1 -0.4,-0.1 l -5.8,-0.2 c 0,0 0,0 0,0 z"
   id="path1097" /> <path
   class="st0"
   d="m 115.4,91.8 1.6,-7.6 c 0.1,-0.4 0.3,-0.7 0.7,-0.7 0.4,0 0.5,0.2 0.4,0.7 l -1.3,6.2 6.3,-6.6 c 0.2,-0.2 0.5,-0.3 0.7,-0.3 0.4,0 0.5,0.2 0.4,0.7 l -1.6,7.6 c -0.1,0.4 -0.3,0.6 -0.7,0.6 -0.4,0 -0.5,-0.2 -0.5,-0.6 l 1.4,-6.3 -6.3,6.5 c -0.1,0.2 -0.3,0.3 -0.4,0.3 -0.1,0 -0.2,0.1 -0.4,0.1 -0.3,0.1 -0.4,-0.1 -0.3,-0.6 m 4.5,-7.9 c -0.6,0 -0.9,-0.1 -1.1,-0.4 -0.2,-0.3 -0.2,-0.7 0,-1.4 l 0.1,-0.6 h 1.2 l -0.2,0.8 c 0,0.2 0,0.3 0,0.4 0,0 0.2,0.1 0.4,0.1 h 1.4 c 0.2,0 0.3,0 0.4,-0.1 0.1,0 0.1,-0.2 0.2,-0.4 l 0.2,-0.8 h 1.2 l -0.1,0.6 c -0.1,0.7 -0.4,1.1 -0.6,1.4 -0.3,0.3 -0.7,0.4 -1.3,0.4 z"
   id="path1099" /> <path
   class="st0"
   d="m 121.9,92.6 c 0,0 0,0 0,0 -0.2,0 -0.4,-0.1 -0.5,-0.2 -0.1,-0.1 -0.1,-0.3 -0.1,-0.6 l 1.3,-5.9 -6,6.2 c -0.2,0.2 -0.3,0.3 -0.4,0.3 -0.1,0.1 -0.2,0.1 -0.4,0.1 0,0 0,0 0,0 -0.2,0 -0.4,-0.1 -0.5,-0.2 -0.1,-0.1 -0.1,-0.3 -0.1,-0.6 l 1.6,-7.6 c 0.1,-0.6 0.5,-0.7 0.8,-0.7 0,0 0,0 0,0 0.2,0 0.4,0.1 0.5,0.2 0.1,0.1 0.1,0.4 0.1,0.6 l -1.3,5.8 6.1,-6.3 c 0.2,-0.2 0.5,-0.4 0.7,-0.4 0,0 0,0 0,0 0.2,0 0.4,0.1 0.4,0.2 0.1,0.1 0.1,0.3 0.1,0.6 l -1.6,7.6 c 0.1,0.7 -0.2,0.9 -0.7,0.9 z m 1.1,-7.3 -1.4,6.7 c 0,0.2 0,0.3 0,0.4 0.1,0.1 0.2,0.1 0.3,0.1 0,0 0,0 0,0 0.3,0 0.5,-0.2 0.6,-0.6 l 1.6,-7.6 c 0,-0.2 0,-0.4 0,-0.4 -0.1,-0.1 -0.1,-0.1 -0.3,-0.1 0,0 0,0 0,0 -0.2,0 -0.4,0.1 -0.6,0.3 l -6.6,6.8 1.4,-6.6 c 0,-0.2 0,-0.4 0,-0.5 -0.1,-0.1 -0.2,-0.1 -0.3,-0.1 -0.3,0 -0.5,0.2 -0.6,0.6 l -1.6,7.6 c 0,0.2 0,0.3 0,0.4 0.1,0.1 0.2,0.1 0.3,0.1 0.1,0 0.2,0 0.3,-0.1 0.1,0 0.2,-0.1 0.3,-0.3 z M 121.6,84 c -0.1,0 -0.1,0 0,0 h -1.7 c -0.6,0 -1,-0.2 -1.2,-0.5 -0.2,-0.3 -0.2,-0.8 -0.1,-1.5 l 0.1,-0.7 h 1.4 l -0.2,0.9 c 0,0.2 0,0.3 0,0.3 v 0 c 0,0 0.1,0 0.3,0 h 1.4 c 0,0 0,0 0,0 0.2,0 0.3,0 0.3,0 0,0 0.1,-0.1 0.1,-0.3 l 0.2,-0.9 h 1.4 l -0.2,0.7 c -0.1,0.7 -0.4,1.2 -0.7,1.5 -0.1,0.3 -0.6,0.5 -1.1,0.5 z m -2.6,-2.4 -0.1,0.5 c -0.1,0.6 -0.1,1.1 0,1.3 0.1,0.2 0.5,0.4 1,0.4 h 1.7 c 0.5,0 0.9,-0.1 1.2,-0.4 0.3,-0.2 0.5,-0.7 0.6,-1.3 l 0.1,-0.5 h -1 l -0.2,0.7 c 0,0.2 -0.1,0.4 -0.2,0.4 -0.1,0.1 -0.2,0.1 -0.4,0.1 h -1.4 c -0.2,0 -0.4,0 -0.4,-0.1 -0.1,-0.1 -0.1,-0.2 0,-0.5 l 0.1,-0.7 z"
   id="path1101" /> </g> </g> </svg>
