<?xml version="1.0" encoding="UTF-8" standalone="no"?>
<svg
   xmlns:dc="http://purl.org/dc/elements/1.1/"
   xmlns:cc="http://creativecommons.org/ns#"
   xmlns:rdf="http://www.w3.org/1999/02/22-rdf-syntax-ns#"
   xmlns:svg="http://www.w3.org/2000/svg"
   xmlns="http://www.w3.org/2000/svg"
   xmlns:sodipodi="http://sodipodi.sourceforge.net/DTD/sodipodi-0.dtd"
   xmlns:inkscape="http://www.inkscape.org/namespaces/inkscape"
   inkscape:version="1.0 (4035a4fb49, 2020-05-01)"
   sodipodi:docname="vk.svg"
   id="svg1526"
   version="1.1"
   fill="none"
   height="24"
   width="24">
  <metadata
     id="metadata1530">
    <rdf:RDF>
      <cc:Work
         rdf:about="">
        <dc:format>image/svg+xml</dc:format>
        <dc:type
           rdf:resource="http://purl.org/dc/dcmitype/StillImage" />
      </cc:Work>
    </rdf:RDF>
  </metadata>
  <sodipodi:namedview
     inkscape:current-layer="svg1526"
     inkscape:window-maximized="1"
     inkscape:window-y="-8"
     inkscape:window-x="-8"
     inkscape:cy="12.5"
     inkscape:cx="12.5"
     inkscape:zoom="26.8"
     showgrid="false"
     id="namedview1528"
     inkscape:window-height="838"
     inkscape:window-width="1600"
     inkscape:pageshadow="2"
     inkscape:pageopacity="0"
     guidetolerance="10"
     gridtolerance="10"
     objecttolerance="10"
     borderopacity="1"
     bordercolor="#666666"
     pagecolor="#ffffff" />
  <g
     id="g1519"
     clip-path="url(#clip0)">
    <path
       id="path1515"
       fill="#2787f5"
       d="M 0,11.5 C 0,6.079 0,3.368 1.684,1.684 3.368,0 6.08,0 11.5,0 h 1 c 5.421,0 8.132,0 9.816,1.684 C 24,3.368 24,6.08 24,11.5 v 1 c 0,5.421 0,8.132 -1.684,9.816 C 20.632,24 17.92,24 12.5,24 h -1 C 6.079,24 3.368,24 1.684,22.316 0,20.632 0,17.92 0,12.5 Z" />
    <path
       id="path1517"
       fill="#ffffff"
       d="M 6.5,7.5 H 4.75 c -0.5,0 -0.6,0.235 -0.6,0.495 0,0.463 0.593,2.762 2.762,5.803 C 8.36,15.874 10.396,17 12.25,17 c 1.112,0 1.25,-0.25 1.25,-0.68 v -1.57 c 0,-0.5 0.105,-0.6 0.458,-0.6 0.26,0 0.704,0.13 1.742,1.131 1.187,1.187 1.383,1.719 2.05,1.719 h 1.75 c 0.5,0 0.75,-0.25 0.606,-0.743 -0.158,-0.492 -0.725,-1.206 -1.476,-2.051 -0.408,-0.482 -1.02,-1.001 -1.205,-1.26 -0.26,-0.335 -0.186,-0.483 0,-0.78 0,0 2.132,-3.003 2.354,-4.023 C 19.89,7.773 19.779,7.5 19.25,7.5 H 17.5 c -0.445,0 -0.65,0.235 -0.761,0.495 0,0 -0.89,2.17 -2.151,3.578 -0.408,0.408 -0.593,0.538 -0.816,0.538 -0.111,0 -0.272,-0.13 -0.272,-0.5 V 8.142 C 13.5,7.697 13.37,7.499 13,7.499 h -2.75 c -0.278,0 -0.445,0.207 -0.445,0.402 0,0.422 0.63,0.52 0.695,1.706 v 2.577 c 0,0.565 -0.102,0.667 -0.325,0.667 -0.593,0 -2.036,-2.178 -2.892,-4.672 C 7.116,7.695 6.947,7.499 6.5,7.499 Z"
       clip-rule="evenodd"
       fill-rule="evenodd" />
  </g>
  <defs
     id="defs1524">
    <clipPath
       id="clip0">
      <path
         id="path1521"
         d="M 0,0 H 136 V 24 H 0 Z"
         fill="#ffffff" />
    </clipPath>
  </defs>
</svg>
