<svg width="1941" height="524" viewBox="0 0 1941 524" fill="none" xmlns="http://www.w3.org/2000/svg">
<rect width="1941" height="524" fill="#A9EDAF"/>
<path fill-rule="evenodd" clip-rule="evenodd" d="M0 465.712L17.7925 436.568C33.9675 407.424 67.935 349.135 101.902 281.132C135.87 213.13 169.837 135.412 203.805 135.412C237.772 135.412 271.74 213.13 305.707 222.844C341.292 232.559 375.26 174.271 409.227 154.841C443.195 135.412 477.162 154.841 511.13 213.13C545.097 271.418 579.065 368.565 613.032 349.135C647 329.706 680.967 193.7 714.935 164.556C748.902 135.412 782.87 213.13 816.837 261.703C850.805 310.277 884.772 329.706 918.74 281.132C952.707 232.559 988.292 115.983 1022.26 96.5531C1056.23 77.1237 1090.19 154.841 1124.16 213.13C1158.13 271.418 1192.1 310.277 1226.06 319.991C1260.03 329.706 1294 310.277 1327.97 251.988C1361.93 193.7 1395.9 96.5531 1429.87 86.8384C1463.84 77.1237 1497.8 154.841 1531.77 164.556C1565.74 174.271 1599.71 115.983 1635.29 145.127C1669.26 174.271 1703.23 290.847 1737.19 349.135C1771.16 407.424 1805.13 407.424 1839.1 368.565C1873.06 329.706 1907.03 251.988 1923.21 213.13L1941 174.271V524H1923.21C1907.03 524 1873.06 524 1839.1 524C1805.13 524 1771.16 524 1737.19 524C1703.23 524 1669.26 524 1635.29 524C1599.71 524 1565.74 524 1531.77 524C1497.8 524 1463.84 524 1429.87 524C1395.9 524 1361.93 524 1327.97 524C1294 524 1260.03 524 1226.06 524C1192.1 524 1158.13 524 1124.16 524C1090.19 524 1056.23 524 1022.26 524C988.292 524 952.707 524 918.74 524C884.772 524 850.805 524 816.837 524C782.87 524 748.902 524 714.935 524C680.967 524 647 524 613.032 524C579.065 524 545.097 524 511.13 524C477.162 524 443.195 524 409.227 524C375.26 524 341.292 524 305.707 524C271.74 524 237.772 524 203.805 524C169.837 524 135.87 524 101.902 524C67.935 524 33.9675 524 17.7925 524H0V465.712Z" fill="#90D897"/>
<path fill-rule="evenodd" clip-rule="evenodd" d="M0 291.111L17.7925 242.593C35.585 194.074 71.17 97.037 108.372 77.6296C143.957 58.2222 179.542 116.444 215.127 164.963C252.33 213.481 287.915 252.296 323.5 281.407C359.085 310.519 394.67 329.926 431.872 339.63C467.457 349.333 503.042 349.333 538.627 281.407C575.83 213.481 611.415 77.6296 647 97.037C682.585 116.444 718.17 291.111 755.372 310.519C790.957 329.926 826.542 194.074 862.127 184.37C899.33 174.667 934.915 291.111 970.5 281.407C1006.08 271.704 1041.67 135.852 1078.87 87.3333C1114.46 38.8148 1150.04 77.6296 1185.63 106.741C1222.83 135.852 1258.41 155.259 1294 164.963C1329.58 174.667 1365.17 174.667 1402.37 145.556C1437.96 116.444 1473.54 58.2222 1509.13 106.741C1546.33 155.259 1581.91 310.519 1617.5 339.63C1653.08 368.741 1688.67 271.704 1725.87 281.407C1761.46 291.111 1797.04 407.556 1832.63 378.444C1869.83 349.333 1905.41 174.667 1923.21 87.3333L1941 0V524H1923.21C1905.41 524 1869.83 524 1832.63 524C1797.04 524 1761.46 524 1725.87 524C1688.67 524 1653.08 524 1617.5 524C1581.91 524 1546.33 524 1509.13 524C1473.54 524 1437.96 524 1402.37 524C1365.17 524 1329.58 524 1294 524C1258.41 524 1222.83 524 1185.63 524C1150.04 524 1114.46 524 1078.87 524C1041.67 524 1006.08 524 970.5 524C934.915 524 899.33 524 862.127 524C826.542 524 790.957 524 755.372 524C718.17 524 682.585 524 647 524C611.415 524 575.83 524 538.627 524C503.042 524 467.457 524 431.872 524C394.67 524 359.085 524 323.5 524C287.915 524 252.33 524 215.127 524C179.542 524 143.957 524 108.372 524C71.17 524 35.585 524 17.7925 524H0V291.111Z" fill="#88C68E"/>
</svg>
